%TF.GenerationSoftware,KiCad,Pcbnew,7.0.9*%
%TF.CreationDate,2024-02-13T13:26:57+05:30*%
%TF.ProjectId,PIDFollower,50494446-6f6c-46c6-9f77-65722e6b6963,v01*%
%TF.SameCoordinates,Original*%
%TF.FileFunction,Legend,Top*%
%TF.FilePolarity,Positive*%
%FSLAX46Y46*%
G04 Gerber Fmt 4.6, Leading zero omitted, Abs format (unit mm)*
G04 Created by KiCad (PCBNEW 7.0.9) date 2024-02-13 13:26:57*
%MOMM*%
%LPD*%
G01*
G04 APERTURE LIST*
%ADD10C,0.300000*%
%ADD11C,0.800000*%
%ADD12C,0.200000*%
%ADD13C,0.127000*%
%ADD14C,0.120000*%
G04 APERTURE END LIST*
D10*
X114886225Y-41734828D02*
X115171939Y-41734828D01*
X115171939Y-41734828D02*
X115314796Y-41806257D01*
X115314796Y-41806257D02*
X115457653Y-41949114D01*
X115457653Y-41949114D02*
X115529082Y-42234828D01*
X115529082Y-42234828D02*
X115529082Y-42734828D01*
X115529082Y-42734828D02*
X115457653Y-43020542D01*
X115457653Y-43020542D02*
X115314796Y-43163400D01*
X115314796Y-43163400D02*
X115171939Y-43234828D01*
X115171939Y-43234828D02*
X114886225Y-43234828D01*
X114886225Y-43234828D02*
X114743368Y-43163400D01*
X114743368Y-43163400D02*
X114600510Y-43020542D01*
X114600510Y-43020542D02*
X114529082Y-42734828D01*
X114529082Y-42734828D02*
X114529082Y-42234828D01*
X114529082Y-42234828D02*
X114600510Y-41949114D01*
X114600510Y-41949114D02*
X114743368Y-41806257D01*
X114743368Y-41806257D02*
X114886225Y-41734828D01*
X116171939Y-43234828D02*
X116171939Y-41734828D01*
X116171939Y-41734828D02*
X117029082Y-43234828D01*
X117029082Y-43234828D02*
X117029082Y-41734828D01*
X116156225Y-140794828D02*
X116441939Y-140794828D01*
X116441939Y-140794828D02*
X116584796Y-140866257D01*
X116584796Y-140866257D02*
X116727653Y-141009114D01*
X116727653Y-141009114D02*
X116799082Y-141294828D01*
X116799082Y-141294828D02*
X116799082Y-141794828D01*
X116799082Y-141794828D02*
X116727653Y-142080542D01*
X116727653Y-142080542D02*
X116584796Y-142223400D01*
X116584796Y-142223400D02*
X116441939Y-142294828D01*
X116441939Y-142294828D02*
X116156225Y-142294828D01*
X116156225Y-142294828D02*
X116013368Y-142223400D01*
X116013368Y-142223400D02*
X115870510Y-142080542D01*
X115870510Y-142080542D02*
X115799082Y-141794828D01*
X115799082Y-141794828D02*
X115799082Y-141294828D01*
X115799082Y-141294828D02*
X115870510Y-141009114D01*
X115870510Y-141009114D02*
X116013368Y-140866257D01*
X116013368Y-140866257D02*
X116156225Y-140794828D01*
X117441939Y-142294828D02*
X117441939Y-140794828D01*
X117441939Y-140794828D02*
X118299082Y-142294828D01*
X118299082Y-142294828D02*
X118299082Y-140794828D01*
D11*
X198858876Y-64053304D02*
X194858876Y-64053304D01*
X194858876Y-64053304D02*
X194858876Y-62529494D01*
X194858876Y-62529494D02*
X195049352Y-62148542D01*
X195049352Y-62148542D02*
X195239828Y-61958065D01*
X195239828Y-61958065D02*
X195620780Y-61767589D01*
X195620780Y-61767589D02*
X196192209Y-61767589D01*
X196192209Y-61767589D02*
X196573161Y-61958065D01*
X196573161Y-61958065D02*
X196763638Y-62148542D01*
X196763638Y-62148542D02*
X196954114Y-62529494D01*
X196954114Y-62529494D02*
X196954114Y-64053304D01*
X198858876Y-60053304D02*
X196192209Y-60053304D01*
X196954114Y-60053304D02*
X196573161Y-59862827D01*
X196573161Y-59862827D02*
X196382685Y-59672351D01*
X196382685Y-59672351D02*
X196192209Y-59291399D01*
X196192209Y-59291399D02*
X196192209Y-58910446D01*
X198858876Y-55862828D02*
X196763638Y-55862828D01*
X196763638Y-55862828D02*
X196382685Y-56053304D01*
X196382685Y-56053304D02*
X196192209Y-56434256D01*
X196192209Y-56434256D02*
X196192209Y-57196161D01*
X196192209Y-57196161D02*
X196382685Y-57577114D01*
X198668400Y-55862828D02*
X198858876Y-56243780D01*
X198858876Y-56243780D02*
X198858876Y-57196161D01*
X198858876Y-57196161D02*
X198668400Y-57577114D01*
X198668400Y-57577114D02*
X198287447Y-57767590D01*
X198287447Y-57767590D02*
X197906495Y-57767590D01*
X197906495Y-57767590D02*
X197525542Y-57577114D01*
X197525542Y-57577114D02*
X197335066Y-57196161D01*
X197335066Y-57196161D02*
X197335066Y-56243780D01*
X197335066Y-56243780D02*
X197144590Y-55862828D01*
X196192209Y-54339018D02*
X198858876Y-53386637D01*
X198858876Y-53386637D02*
X196192209Y-52434256D01*
X198668400Y-49386637D02*
X198858876Y-49767589D01*
X198858876Y-49767589D02*
X198858876Y-50529494D01*
X198858876Y-50529494D02*
X198668400Y-50910447D01*
X198668400Y-50910447D02*
X198287447Y-51100923D01*
X198287447Y-51100923D02*
X196763638Y-51100923D01*
X196763638Y-51100923D02*
X196382685Y-50910447D01*
X196382685Y-50910447D02*
X196192209Y-50529494D01*
X196192209Y-50529494D02*
X196192209Y-49767589D01*
X196192209Y-49767589D02*
X196382685Y-49386637D01*
X196382685Y-49386637D02*
X196763638Y-49196161D01*
X196763638Y-49196161D02*
X197144590Y-49196161D01*
X197144590Y-49196161D02*
X197525542Y-51100923D01*
X196192209Y-45767590D02*
X199430304Y-45767590D01*
X199430304Y-45767590D02*
X199811257Y-45958066D01*
X199811257Y-45958066D02*
X200001733Y-46148542D01*
X200001733Y-46148542D02*
X200192209Y-46529495D01*
X200192209Y-46529495D02*
X200192209Y-47100923D01*
X200192209Y-47100923D02*
X200001733Y-47481876D01*
X198668400Y-45767590D02*
X198858876Y-46148542D01*
X198858876Y-46148542D02*
X198858876Y-46910447D01*
X198858876Y-46910447D02*
X198668400Y-47291399D01*
X198668400Y-47291399D02*
X198477923Y-47481876D01*
X198477923Y-47481876D02*
X198096971Y-47672352D01*
X198096971Y-47672352D02*
X196954114Y-47672352D01*
X196954114Y-47672352D02*
X196573161Y-47481876D01*
X196573161Y-47481876D02*
X196382685Y-47291399D01*
X196382685Y-47291399D02*
X196192209Y-46910447D01*
X196192209Y-46910447D02*
X196192209Y-46148542D01*
X196192209Y-46148542D02*
X196382685Y-45767590D01*
X198858876Y-42148542D02*
X196763638Y-42148542D01*
X196763638Y-42148542D02*
X196382685Y-42339018D01*
X196382685Y-42339018D02*
X196192209Y-42719970D01*
X196192209Y-42719970D02*
X196192209Y-43481875D01*
X196192209Y-43481875D02*
X196382685Y-43862828D01*
X198668400Y-42148542D02*
X198858876Y-42529494D01*
X198858876Y-42529494D02*
X198858876Y-43481875D01*
X198858876Y-43481875D02*
X198668400Y-43862828D01*
X198668400Y-43862828D02*
X198287447Y-44053304D01*
X198287447Y-44053304D02*
X197906495Y-44053304D01*
X197906495Y-44053304D02*
X197525542Y-43862828D01*
X197525542Y-43862828D02*
X197335066Y-43481875D01*
X197335066Y-43481875D02*
X197335066Y-42529494D01*
X197335066Y-42529494D02*
X197144590Y-42148542D01*
D12*
X80042219Y-106096904D02*
X80851742Y-106096904D01*
X80851742Y-106096904D02*
X80946980Y-106049285D01*
X80946980Y-106049285D02*
X80994600Y-106001666D01*
X80994600Y-106001666D02*
X81042219Y-105906428D01*
X81042219Y-105906428D02*
X81042219Y-105715952D01*
X81042219Y-105715952D02*
X80994600Y-105620714D01*
X80994600Y-105620714D02*
X80946980Y-105573095D01*
X80946980Y-105573095D02*
X80851742Y-105525476D01*
X80851742Y-105525476D02*
X80042219Y-105525476D01*
X80042219Y-105144523D02*
X80042219Y-104525476D01*
X80042219Y-104525476D02*
X80423171Y-104858809D01*
X80423171Y-104858809D02*
X80423171Y-104715952D01*
X80423171Y-104715952D02*
X80470790Y-104620714D01*
X80470790Y-104620714D02*
X80518409Y-104573095D01*
X80518409Y-104573095D02*
X80613647Y-104525476D01*
X80613647Y-104525476D02*
X80851742Y-104525476D01*
X80851742Y-104525476D02*
X80946980Y-104573095D01*
X80946980Y-104573095D02*
X80994600Y-104620714D01*
X80994600Y-104620714D02*
X81042219Y-104715952D01*
X81042219Y-104715952D02*
X81042219Y-105001666D01*
X81042219Y-105001666D02*
X80994600Y-105096904D01*
X80994600Y-105096904D02*
X80946980Y-105144523D01*
X111588600Y-48323332D02*
X111636219Y-48180475D01*
X111636219Y-48180475D02*
X111636219Y-47942380D01*
X111636219Y-47942380D02*
X111588600Y-47847142D01*
X111588600Y-47847142D02*
X111540980Y-47799523D01*
X111540980Y-47799523D02*
X111445742Y-47751904D01*
X111445742Y-47751904D02*
X111350504Y-47751904D01*
X111350504Y-47751904D02*
X111255266Y-47799523D01*
X111255266Y-47799523D02*
X111207647Y-47847142D01*
X111207647Y-47847142D02*
X111160028Y-47942380D01*
X111160028Y-47942380D02*
X111112409Y-48132856D01*
X111112409Y-48132856D02*
X111064790Y-48228094D01*
X111064790Y-48228094D02*
X111017171Y-48275713D01*
X111017171Y-48275713D02*
X110921933Y-48323332D01*
X110921933Y-48323332D02*
X110826695Y-48323332D01*
X110826695Y-48323332D02*
X110731457Y-48275713D01*
X110731457Y-48275713D02*
X110683838Y-48228094D01*
X110683838Y-48228094D02*
X110636219Y-48132856D01*
X110636219Y-48132856D02*
X110636219Y-47894761D01*
X110636219Y-47894761D02*
X110683838Y-47751904D01*
X110636219Y-47418570D02*
X111636219Y-47180475D01*
X111636219Y-47180475D02*
X110921933Y-46989999D01*
X110921933Y-46989999D02*
X111636219Y-46799523D01*
X111636219Y-46799523D02*
X110636219Y-46561428D01*
X111636219Y-45656666D02*
X111636219Y-46228094D01*
X111636219Y-45942380D02*
X110636219Y-45942380D01*
X110636219Y-45942380D02*
X110779076Y-46037618D01*
X110779076Y-46037618D02*
X110874314Y-46132856D01*
X110874314Y-46132856D02*
X110921933Y-46228094D01*
X186618409Y-92225714D02*
X186666028Y-92082857D01*
X186666028Y-92082857D02*
X186713647Y-92035238D01*
X186713647Y-92035238D02*
X186808885Y-91987619D01*
X186808885Y-91987619D02*
X186951742Y-91987619D01*
X186951742Y-91987619D02*
X187046980Y-92035238D01*
X187046980Y-92035238D02*
X187094600Y-92082857D01*
X187094600Y-92082857D02*
X187142219Y-92178095D01*
X187142219Y-92178095D02*
X187142219Y-92559047D01*
X187142219Y-92559047D02*
X186142219Y-92559047D01*
X186142219Y-92559047D02*
X186142219Y-92225714D01*
X186142219Y-92225714D02*
X186189838Y-92130476D01*
X186189838Y-92130476D02*
X186237457Y-92082857D01*
X186237457Y-92082857D02*
X186332695Y-92035238D01*
X186332695Y-92035238D02*
X186427933Y-92035238D01*
X186427933Y-92035238D02*
X186523171Y-92082857D01*
X186523171Y-92082857D02*
X186570790Y-92130476D01*
X186570790Y-92130476D02*
X186618409Y-92225714D01*
X186618409Y-92225714D02*
X186618409Y-92559047D01*
X186142219Y-91701904D02*
X186142219Y-91130476D01*
X187142219Y-91416190D02*
X186142219Y-91416190D01*
X187142219Y-90273333D02*
X187142219Y-90844761D01*
X187142219Y-90559047D02*
X186142219Y-90559047D01*
X186142219Y-90559047D02*
X186285076Y-90654285D01*
X186285076Y-90654285D02*
X186380314Y-90749523D01*
X186380314Y-90749523D02*
X186427933Y-90844761D01*
X99599019Y-128215104D02*
X100408542Y-128215104D01*
X100408542Y-128215104D02*
X100503780Y-128167485D01*
X100503780Y-128167485D02*
X100551400Y-128119866D01*
X100551400Y-128119866D02*
X100599019Y-128024628D01*
X100599019Y-128024628D02*
X100599019Y-127834152D01*
X100599019Y-127834152D02*
X100551400Y-127738914D01*
X100551400Y-127738914D02*
X100503780Y-127691295D01*
X100503780Y-127691295D02*
X100408542Y-127643676D01*
X100408542Y-127643676D02*
X99599019Y-127643676D01*
X100599019Y-126643676D02*
X100599019Y-127215104D01*
X100599019Y-126929390D02*
X99599019Y-126929390D01*
X99599019Y-126929390D02*
X99741876Y-127024628D01*
X99741876Y-127024628D02*
X99837114Y-127119866D01*
X99837114Y-127119866D02*
X99884733Y-127215104D01*
X89360476Y-126182219D02*
X89360476Y-125182219D01*
X89360476Y-125182219D02*
X89693809Y-125896504D01*
X89693809Y-125896504D02*
X90027142Y-125182219D01*
X90027142Y-125182219D02*
X90027142Y-126182219D01*
X90455714Y-125277457D02*
X90503333Y-125229838D01*
X90503333Y-125229838D02*
X90598571Y-125182219D01*
X90598571Y-125182219D02*
X90836666Y-125182219D01*
X90836666Y-125182219D02*
X90931904Y-125229838D01*
X90931904Y-125229838D02*
X90979523Y-125277457D01*
X90979523Y-125277457D02*
X91027142Y-125372695D01*
X91027142Y-125372695D02*
X91027142Y-125467933D01*
X91027142Y-125467933D02*
X90979523Y-125610790D01*
X90979523Y-125610790D02*
X90408095Y-126182219D01*
X90408095Y-126182219D02*
X91027142Y-126182219D01*
X130960952Y-62262219D02*
X130484762Y-62262219D01*
X130484762Y-62262219D02*
X130484762Y-61262219D01*
X131294286Y-61738409D02*
X131627619Y-61738409D01*
X131770476Y-62262219D02*
X131294286Y-62262219D01*
X131294286Y-62262219D02*
X131294286Y-61262219D01*
X131294286Y-61262219D02*
X131770476Y-61262219D01*
X132199048Y-62262219D02*
X132199048Y-61262219D01*
X132199048Y-61262219D02*
X132437143Y-61262219D01*
X132437143Y-61262219D02*
X132580000Y-61309838D01*
X132580000Y-61309838D02*
X132675238Y-61405076D01*
X132675238Y-61405076D02*
X132722857Y-61500314D01*
X132722857Y-61500314D02*
X132770476Y-61690790D01*
X132770476Y-61690790D02*
X132770476Y-61833647D01*
X132770476Y-61833647D02*
X132722857Y-62024123D01*
X132722857Y-62024123D02*
X132675238Y-62119361D01*
X132675238Y-62119361D02*
X132580000Y-62214600D01*
X132580000Y-62214600D02*
X132437143Y-62262219D01*
X132437143Y-62262219D02*
X132199048Y-62262219D01*
X133722857Y-62262219D02*
X133151429Y-62262219D01*
X133437143Y-62262219D02*
X133437143Y-61262219D01*
X133437143Y-61262219D02*
X133341905Y-61405076D01*
X133341905Y-61405076D02*
X133246667Y-61500314D01*
X133246667Y-61500314D02*
X133151429Y-61547933D01*
X130960952Y-116872219D02*
X130484762Y-116872219D01*
X130484762Y-116872219D02*
X130484762Y-115872219D01*
X131294286Y-116348409D02*
X131627619Y-116348409D01*
X131770476Y-116872219D02*
X131294286Y-116872219D01*
X131294286Y-116872219D02*
X131294286Y-115872219D01*
X131294286Y-115872219D02*
X131770476Y-115872219D01*
X132199048Y-116872219D02*
X132199048Y-115872219D01*
X132199048Y-115872219D02*
X132437143Y-115872219D01*
X132437143Y-115872219D02*
X132580000Y-115919838D01*
X132580000Y-115919838D02*
X132675238Y-116015076D01*
X132675238Y-116015076D02*
X132722857Y-116110314D01*
X132722857Y-116110314D02*
X132770476Y-116300790D01*
X132770476Y-116300790D02*
X132770476Y-116443647D01*
X132770476Y-116443647D02*
X132722857Y-116634123D01*
X132722857Y-116634123D02*
X132675238Y-116729361D01*
X132675238Y-116729361D02*
X132580000Y-116824600D01*
X132580000Y-116824600D02*
X132437143Y-116872219D01*
X132437143Y-116872219D02*
X132199048Y-116872219D01*
X133151429Y-115967457D02*
X133199048Y-115919838D01*
X133199048Y-115919838D02*
X133294286Y-115872219D01*
X133294286Y-115872219D02*
X133532381Y-115872219D01*
X133532381Y-115872219D02*
X133627619Y-115919838D01*
X133627619Y-115919838D02*
X133675238Y-115967457D01*
X133675238Y-115967457D02*
X133722857Y-116062695D01*
X133722857Y-116062695D02*
X133722857Y-116157933D01*
X133722857Y-116157933D02*
X133675238Y-116300790D01*
X133675238Y-116300790D02*
X133103810Y-116872219D01*
X133103810Y-116872219D02*
X133722857Y-116872219D01*
X112272219Y-64809523D02*
X113272219Y-64476190D01*
X113272219Y-64476190D02*
X112272219Y-64142857D01*
X113272219Y-63238095D02*
X112796028Y-63571428D01*
X113272219Y-63809523D02*
X112272219Y-63809523D01*
X112272219Y-63809523D02*
X112272219Y-63428571D01*
X112272219Y-63428571D02*
X112319838Y-63333333D01*
X112319838Y-63333333D02*
X112367457Y-63285714D01*
X112367457Y-63285714D02*
X112462695Y-63238095D01*
X112462695Y-63238095D02*
X112605552Y-63238095D01*
X112605552Y-63238095D02*
X112700790Y-63285714D01*
X112700790Y-63285714D02*
X112748409Y-63333333D01*
X112748409Y-63333333D02*
X112796028Y-63428571D01*
X112796028Y-63428571D02*
X112796028Y-63809523D01*
X113272219Y-62285714D02*
X113272219Y-62857142D01*
X113272219Y-62571428D02*
X112272219Y-62571428D01*
X112272219Y-62571428D02*
X112415076Y-62666666D01*
X112415076Y-62666666D02*
X112510314Y-62761904D01*
X112510314Y-62761904D02*
X112557933Y-62857142D01*
X122542219Y-71286666D02*
X122066028Y-71619999D01*
X122542219Y-71858094D02*
X121542219Y-71858094D01*
X121542219Y-71858094D02*
X121542219Y-71477142D01*
X121542219Y-71477142D02*
X121589838Y-71381904D01*
X121589838Y-71381904D02*
X121637457Y-71334285D01*
X121637457Y-71334285D02*
X121732695Y-71286666D01*
X121732695Y-71286666D02*
X121875552Y-71286666D01*
X121875552Y-71286666D02*
X121970790Y-71334285D01*
X121970790Y-71334285D02*
X122018409Y-71381904D01*
X122018409Y-71381904D02*
X122066028Y-71477142D01*
X122066028Y-71477142D02*
X122066028Y-71858094D01*
X122542219Y-70334285D02*
X122542219Y-70905713D01*
X122542219Y-70619999D02*
X121542219Y-70619999D01*
X121542219Y-70619999D02*
X121685076Y-70715237D01*
X121685076Y-70715237D02*
X121780314Y-70810475D01*
X121780314Y-70810475D02*
X121827933Y-70905713D01*
X112858600Y-138493332D02*
X112906219Y-138350475D01*
X112906219Y-138350475D02*
X112906219Y-138112380D01*
X112906219Y-138112380D02*
X112858600Y-138017142D01*
X112858600Y-138017142D02*
X112810980Y-137969523D01*
X112810980Y-137969523D02*
X112715742Y-137921904D01*
X112715742Y-137921904D02*
X112620504Y-137921904D01*
X112620504Y-137921904D02*
X112525266Y-137969523D01*
X112525266Y-137969523D02*
X112477647Y-138017142D01*
X112477647Y-138017142D02*
X112430028Y-138112380D01*
X112430028Y-138112380D02*
X112382409Y-138302856D01*
X112382409Y-138302856D02*
X112334790Y-138398094D01*
X112334790Y-138398094D02*
X112287171Y-138445713D01*
X112287171Y-138445713D02*
X112191933Y-138493332D01*
X112191933Y-138493332D02*
X112096695Y-138493332D01*
X112096695Y-138493332D02*
X112001457Y-138445713D01*
X112001457Y-138445713D02*
X111953838Y-138398094D01*
X111953838Y-138398094D02*
X111906219Y-138302856D01*
X111906219Y-138302856D02*
X111906219Y-138064761D01*
X111906219Y-138064761D02*
X111953838Y-137921904D01*
X111906219Y-137588570D02*
X112906219Y-137350475D01*
X112906219Y-137350475D02*
X112191933Y-137159999D01*
X112191933Y-137159999D02*
X112906219Y-136969523D01*
X112906219Y-136969523D02*
X111906219Y-136731428D01*
X112001457Y-136398094D02*
X111953838Y-136350475D01*
X111953838Y-136350475D02*
X111906219Y-136255237D01*
X111906219Y-136255237D02*
X111906219Y-136017142D01*
X111906219Y-136017142D02*
X111953838Y-135921904D01*
X111953838Y-135921904D02*
X112001457Y-135874285D01*
X112001457Y-135874285D02*
X112096695Y-135826666D01*
X112096695Y-135826666D02*
X112191933Y-135826666D01*
X112191933Y-135826666D02*
X112334790Y-135874285D01*
X112334790Y-135874285D02*
X112906219Y-136445713D01*
X112906219Y-136445713D02*
X112906219Y-135826666D01*
X89360476Y-62682219D02*
X89360476Y-61682219D01*
X89360476Y-61682219D02*
X89693809Y-62396504D01*
X89693809Y-62396504D02*
X90027142Y-61682219D01*
X90027142Y-61682219D02*
X90027142Y-62682219D01*
X91027142Y-62682219D02*
X90455714Y-62682219D01*
X90741428Y-62682219D02*
X90741428Y-61682219D01*
X90741428Y-61682219D02*
X90646190Y-61825076D01*
X90646190Y-61825076D02*
X90550952Y-61920314D01*
X90550952Y-61920314D02*
X90455714Y-61967933D01*
%TO.C,G\u002A\u002A\u002A*%
G36*
X203806961Y-130219090D02*
G01*
X203817012Y-130293614D01*
X203808613Y-130358513D01*
X203806422Y-130364485D01*
X203794159Y-130372117D01*
X203761973Y-130378094D01*
X203706468Y-130382572D01*
X203624248Y-130385705D01*
X203511915Y-130387647D01*
X203366073Y-130388553D01*
X203275338Y-130388666D01*
X203119982Y-130388597D01*
X202998883Y-130388159D01*
X202907610Y-130387004D01*
X202841728Y-130384785D01*
X202796806Y-130381153D01*
X202768411Y-130375762D01*
X202752111Y-130368263D01*
X202743472Y-130358308D01*
X202738433Y-130346553D01*
X202730927Y-130296845D01*
X202735005Y-130244992D01*
X202747156Y-130185543D01*
X203271186Y-130180400D01*
X203795216Y-130175257D01*
X203806961Y-130219090D01*
G37*
G36*
X201785872Y-133962268D02*
G01*
X201861079Y-133962717D01*
X201902193Y-133963492D01*
X201908001Y-133963854D01*
X201960288Y-133969887D01*
X201966036Y-134275399D01*
X201967414Y-134384694D01*
X201967415Y-134484218D01*
X201966133Y-134565766D01*
X201963660Y-134621134D01*
X201961924Y-134636921D01*
X201952063Y-134692931D01*
X200658284Y-134697905D01*
X200382018Y-134698773D01*
X200142623Y-134699090D01*
X199938282Y-134698833D01*
X199767179Y-134697977D01*
X199627498Y-134696500D01*
X199517423Y-134694377D01*
X199435138Y-134691584D01*
X199378828Y-134688099D01*
X199346675Y-134683897D01*
X199337740Y-134680666D01*
X199327798Y-134664755D01*
X199320877Y-134632863D01*
X199316680Y-134579992D01*
X199314911Y-134501146D01*
X199315275Y-134391328D01*
X199316247Y-134317809D01*
X199321518Y-133977165D01*
X200588617Y-133967493D01*
X200807877Y-133965916D01*
X201016694Y-133964600D01*
X201211688Y-133963555D01*
X201389481Y-133962790D01*
X201546695Y-133962314D01*
X201679952Y-133962137D01*
X201785872Y-133962268D01*
G37*
G36*
X201962113Y-132536096D02*
G01*
X201962113Y-133503481D01*
X200641816Y-133498511D01*
X199321518Y-133493540D01*
X199316213Y-133169117D01*
X199315366Y-133036482D01*
X199317437Y-132929863D01*
X199322260Y-132853204D01*
X199329670Y-132810448D01*
X199331402Y-132806398D01*
X199337016Y-132797790D01*
X199345992Y-132790578D01*
X199361544Y-132784640D01*
X199386883Y-132779851D01*
X199425221Y-132776088D01*
X199479770Y-132773228D01*
X199553742Y-132771147D01*
X199650348Y-132769721D01*
X199772802Y-132768828D01*
X199924315Y-132768342D01*
X200108099Y-132768142D01*
X200326998Y-132768102D01*
X200557058Y-132767899D01*
X200751032Y-132767248D01*
X200911522Y-132766085D01*
X201041130Y-132764346D01*
X201142459Y-132761968D01*
X201218110Y-132758888D01*
X201270686Y-132755042D01*
X201302788Y-132750367D01*
X201317020Y-132744798D01*
X201317749Y-132743921D01*
X201321798Y-132718952D01*
X201325458Y-132660450D01*
X201328588Y-132573572D01*
X201331047Y-132463474D01*
X201332693Y-132335312D01*
X201333387Y-132194243D01*
X201333400Y-132171754D01*
X201333523Y-132011522D01*
X201334084Y-131885573D01*
X201335371Y-131789501D01*
X201337672Y-131718901D01*
X201341272Y-131669366D01*
X201346461Y-131636491D01*
X201353526Y-131615868D01*
X201362753Y-131603092D01*
X201370951Y-131596240D01*
X201397790Y-131584440D01*
X201444307Y-131576280D01*
X201515883Y-131571288D01*
X201617898Y-131568995D01*
X201685307Y-131568712D01*
X201962113Y-131568712D01*
X201962113Y-132536096D01*
G37*
G36*
X203122813Y-126858886D02*
G01*
X203267436Y-126859940D01*
X203378439Y-126862732D01*
X203460867Y-126867589D01*
X203519764Y-126874840D01*
X203560175Y-126884814D01*
X203568300Y-126887903D01*
X203675768Y-126949954D01*
X203753437Y-127035059D01*
X203801821Y-127144236D01*
X203821435Y-127278504D01*
X203818684Y-127383660D01*
X203810020Y-127462100D01*
X203796026Y-127516921D01*
X203771270Y-127563192D01*
X203738469Y-127606127D01*
X203692862Y-127654585D01*
X203641812Y-127691876D01*
X203579931Y-127719225D01*
X203501832Y-127737858D01*
X203402128Y-127749000D01*
X203275432Y-127753878D01*
X203116356Y-127753717D01*
X203091303Y-127753364D01*
X202745585Y-127748072D01*
X202739239Y-127692536D01*
X202738388Y-127634185D01*
X202744106Y-127592320D01*
X202749100Y-127576253D01*
X202758475Y-127564577D01*
X202777748Y-127556579D01*
X202812438Y-127551541D01*
X202868061Y-127548749D01*
X202950136Y-127547487D01*
X203064181Y-127547041D01*
X203093815Y-127546981D01*
X203214358Y-127545614D01*
X203318666Y-127542232D01*
X203400543Y-127537176D01*
X203453791Y-127530788D01*
X203469740Y-127526291D01*
X203520342Y-127509393D01*
X203548119Y-127506259D01*
X203586057Y-127488693D01*
X203616275Y-127442360D01*
X203636433Y-127376808D01*
X203644187Y-127301585D01*
X203637196Y-127226239D01*
X203626172Y-127188088D01*
X203594420Y-127144029D01*
X203553628Y-127116712D01*
X203499995Y-127094687D01*
X203461351Y-127078231D01*
X203429897Y-127072406D01*
X203366923Y-127066872D01*
X203279600Y-127062045D01*
X203175096Y-127058338D01*
X203084123Y-127056459D01*
X202745585Y-127051651D01*
X202745585Y-126954926D01*
X202745585Y-126858201D01*
X203122813Y-126858886D01*
G37*
G36*
X202818925Y-129281018D02*
G01*
X202844187Y-129300509D01*
X202864081Y-129326274D01*
X202875247Y-129364391D01*
X202879721Y-129424894D01*
X202880033Y-129477101D01*
X202882395Y-129565982D01*
X202894593Y-129623209D01*
X202922127Y-129655574D01*
X202970494Y-129669869D01*
X203038524Y-129672900D01*
X203111664Y-129669120D01*
X203158896Y-129653290D01*
X203185724Y-129618672D01*
X203197650Y-129558533D01*
X203200193Y-129475029D01*
X203203403Y-129386505D01*
X203215258Y-129329904D01*
X203239094Y-129298824D01*
X203278247Y-129286865D01*
X203298718Y-129286000D01*
X203333504Y-129290828D01*
X203355829Y-129309767D01*
X203368304Y-129349503D01*
X203373540Y-129416719D01*
X203374298Y-129479450D01*
X203374768Y-129562458D01*
X203380559Y-129617529D01*
X203398247Y-129650387D01*
X203434408Y-129666753D01*
X203495617Y-129672351D01*
X203588449Y-129672903D01*
X203596579Y-129672900D01*
X203686152Y-129673366D01*
X203744419Y-129675781D01*
X203778762Y-129681671D01*
X203796564Y-129692565D01*
X203805207Y-129709987D01*
X203807041Y-129716427D01*
X203817995Y-129789266D01*
X203804342Y-129840464D01*
X203803238Y-129842248D01*
X203788658Y-129849999D01*
X203753618Y-129856116D01*
X203694747Y-129860762D01*
X203608676Y-129864097D01*
X203492035Y-129866281D01*
X203341455Y-129867476D01*
X203269609Y-129867715D01*
X203131952Y-129867697D01*
X203007346Y-129867032D01*
X202900917Y-129865799D01*
X202817792Y-129864079D01*
X202763096Y-129861952D01*
X202741956Y-129859496D01*
X202741951Y-129859492D01*
X202737660Y-129836666D01*
X202734594Y-129783718D01*
X202732720Y-129709198D01*
X202732001Y-129621655D01*
X202732403Y-129529636D01*
X202733888Y-129441691D01*
X202736423Y-129366369D01*
X202739971Y-129312217D01*
X202744325Y-129288040D01*
X202775423Y-129267877D01*
X202818925Y-129281018D01*
G37*
G36*
X203303299Y-124376293D02*
G01*
X203418211Y-124388144D01*
X203507146Y-124412236D01*
X203582012Y-124452946D01*
X203638926Y-124499632D01*
X203679708Y-124535834D01*
X203710389Y-124560347D01*
X203713688Y-124562545D01*
X203737149Y-124594551D01*
X203760708Y-124656450D01*
X203782458Y-124739500D01*
X203800493Y-124834955D01*
X203812905Y-124934072D01*
X203817788Y-125028107D01*
X203817768Y-125039770D01*
X203816024Y-125120106D01*
X203812713Y-125186810D01*
X203808426Y-125229576D01*
X203806422Y-125238057D01*
X203794229Y-125245627D01*
X203762209Y-125251571D01*
X203706986Y-125256039D01*
X203625186Y-125259182D01*
X203513434Y-125261151D01*
X203368356Y-125262098D01*
X203314192Y-125262172D01*
X203266289Y-125262238D01*
X202735913Y-125262238D01*
X202733157Y-125199367D01*
X202732266Y-125153645D01*
X202732068Y-125080720D01*
X202732559Y-124992069D01*
X202733267Y-124929907D01*
X202734102Y-124897961D01*
X202877268Y-124897961D01*
X202879391Y-124965022D01*
X202901165Y-125019659D01*
X202935798Y-125048212D01*
X202970324Y-125054294D01*
X203033595Y-125059238D01*
X203117443Y-125062970D01*
X203213699Y-125065415D01*
X203314192Y-125066500D01*
X203410755Y-125066151D01*
X203495217Y-125064294D01*
X203559410Y-125060854D01*
X203595164Y-125055758D01*
X203598702Y-125054217D01*
X203627000Y-125020434D01*
X203638310Y-124965573D01*
X203633228Y-124884031D01*
X203623271Y-124823707D01*
X203592616Y-124730527D01*
X203538746Y-124663504D01*
X203457911Y-124619651D01*
X203346360Y-124595985D01*
X203335657Y-124594840D01*
X203222128Y-124589039D01*
X203127414Y-124595317D01*
X203058122Y-124612820D01*
X203024833Y-124635037D01*
X202992138Y-124658754D01*
X202975725Y-124662542D01*
X202953203Y-124679211D01*
X202938400Y-124715741D01*
X202921631Y-124771528D01*
X202896957Y-124830581D01*
X202877268Y-124897961D01*
X202734102Y-124897961D01*
X202735847Y-124831152D01*
X202741566Y-124760256D01*
X202752233Y-124706411D01*
X202769655Y-124658809D01*
X202783437Y-124630059D01*
X202857358Y-124521682D01*
X202954360Y-124443358D01*
X203075292Y-124394670D01*
X203221006Y-124375204D01*
X203303299Y-124376293D01*
G37*
G36*
X203261952Y-131130719D02*
G01*
X203399295Y-131132314D01*
X203524432Y-131134809D01*
X203631989Y-131138014D01*
X203716592Y-131141737D01*
X203772866Y-131145789D01*
X203795052Y-131149674D01*
X203809972Y-131178599D01*
X203818149Y-131237885D01*
X203819234Y-131276189D01*
X203817404Y-131331251D01*
X203808525Y-131374234D01*
X203787510Y-131410604D01*
X203749273Y-131445827D01*
X203688727Y-131485370D01*
X203600785Y-131534700D01*
X203556495Y-131558560D01*
X203480234Y-131600365D01*
X203414838Y-131637903D01*
X203369257Y-131665950D01*
X203354918Y-131676242D01*
X203314512Y-131703517D01*
X203277538Y-131722366D01*
X203202773Y-131760241D01*
X203134698Y-131804382D01*
X203080359Y-131849005D01*
X203046805Y-131888329D01*
X203041021Y-131916448D01*
X203060837Y-131918987D01*
X203113353Y-131920627D01*
X203192588Y-131921320D01*
X203292563Y-131921019D01*
X203407295Y-131919675D01*
X203420002Y-131919471D01*
X203794428Y-131913295D01*
X203806567Y-131958635D01*
X203818275Y-132028940D01*
X203809459Y-132072306D01*
X203800947Y-132080700D01*
X203775959Y-132084570D01*
X203718959Y-132087655D01*
X203636173Y-132089973D01*
X203533826Y-132091541D01*
X203418146Y-132092378D01*
X203295357Y-132092500D01*
X203171686Y-132091925D01*
X203053358Y-132090672D01*
X202946601Y-132088757D01*
X202857640Y-132086199D01*
X202792700Y-132083014D01*
X202758008Y-132079221D01*
X202754142Y-132077731D01*
X202743439Y-132047489D01*
X202736166Y-131988495D01*
X202733210Y-131910605D01*
X202734039Y-131854050D01*
X202743467Y-131814719D01*
X202761283Y-131800852D01*
X202794051Y-131788874D01*
X202824653Y-131766998D01*
X202871829Y-131732820D01*
X202949759Y-131685973D01*
X203053712Y-131629208D01*
X203122813Y-131593461D01*
X203171523Y-131567501D01*
X203205886Y-131547075D01*
X203209866Y-131544258D01*
X203266556Y-131504535D01*
X203329885Y-131465337D01*
X203385741Y-131435062D01*
X203412118Y-131423900D01*
X203443888Y-131401539D01*
X203447967Y-131362095D01*
X203442006Y-131313559D01*
X203098575Y-131316177D01*
X202755144Y-131318796D01*
X202732751Y-131269648D01*
X202720334Y-131214279D01*
X202731695Y-131173671D01*
X202753033Y-131126840D01*
X203261952Y-131130719D01*
G37*
G36*
X201962950Y-123448643D02*
G01*
X201964157Y-123583652D01*
X201965228Y-123735735D01*
X201966156Y-123900313D01*
X201966934Y-124072803D01*
X201967554Y-124248627D01*
X201968009Y-124423203D01*
X201968292Y-124591953D01*
X201968395Y-124750294D01*
X201968311Y-124893647D01*
X201968033Y-125017433D01*
X201967554Y-125117069D01*
X201966866Y-125187977D01*
X201965962Y-125225575D01*
X201965781Y-125228384D01*
X201959777Y-125300928D01*
X200647554Y-125300928D01*
X200388545Y-125300860D01*
X200165547Y-125300615D01*
X199975881Y-125300130D01*
X199816868Y-125299345D01*
X199685828Y-125298196D01*
X199580082Y-125296622D01*
X199496952Y-125294562D01*
X199433759Y-125291953D01*
X199387822Y-125288733D01*
X199356464Y-125284840D01*
X199337005Y-125280213D01*
X199326766Y-125274789D01*
X199323588Y-125270328D01*
X199318940Y-125239120D01*
X199315553Y-125178411D01*
X199313388Y-125096223D01*
X199312412Y-125000576D01*
X199312586Y-124899490D01*
X199313876Y-124800986D01*
X199316244Y-124713083D01*
X199319655Y-124643802D01*
X199324073Y-124601163D01*
X199326651Y-124592335D01*
X199353272Y-124580831D01*
X199411384Y-124573099D01*
X199493895Y-124570077D01*
X199495624Y-124570071D01*
X199548495Y-124569935D01*
X199635039Y-124569723D01*
X199750238Y-124569444D01*
X199889075Y-124569113D01*
X200046531Y-124568740D01*
X200217591Y-124568338D01*
X200397235Y-124567918D01*
X200476079Y-124567735D01*
X200676927Y-124567181D01*
X200842519Y-124566444D01*
X200976291Y-124565375D01*
X201081677Y-124563827D01*
X201162113Y-124561655D01*
X201221033Y-124558709D01*
X201261872Y-124554845D01*
X201288065Y-124549914D01*
X201303046Y-124543770D01*
X201310251Y-124536266D01*
X201312009Y-124531964D01*
X201315034Y-124504415D01*
X201318489Y-124443448D01*
X201322182Y-124354330D01*
X201325923Y-124242327D01*
X201329519Y-124112708D01*
X201332778Y-123970738D01*
X201333223Y-123948850D01*
X201336405Y-123806566D01*
X201339950Y-123676817D01*
X201343669Y-123564661D01*
X201347373Y-123475156D01*
X201350872Y-123413359D01*
X201353976Y-123384325D01*
X201354452Y-123383009D01*
X201376364Y-123377295D01*
X201430068Y-123372433D01*
X201508669Y-123368792D01*
X201605272Y-123366742D01*
X201663407Y-123366427D01*
X201962113Y-123366427D01*
X201962950Y-123448643D01*
G37*
G36*
X203533014Y-133216981D02*
G01*
X203598861Y-133221752D01*
X203642157Y-133233025D01*
X203677654Y-133258220D01*
X203720107Y-133304761D01*
X203729492Y-133315820D01*
X203808292Y-133408931D01*
X203813315Y-133596323D01*
X203814312Y-133680262D01*
X203812854Y-133751389D01*
X203809260Y-133799590D01*
X203806462Y-133812733D01*
X203771427Y-133864359D01*
X203721423Y-133900129D01*
X203668593Y-133913643D01*
X203632725Y-133904298D01*
X203620191Y-133875679D01*
X203620565Y-133820289D01*
X203633007Y-133747524D01*
X203653020Y-133677318D01*
X203664849Y-133629000D01*
X203661453Y-133583896D01*
X203641224Y-133524207D01*
X203638608Y-133517721D01*
X203614296Y-133463329D01*
X203591874Y-133436178D01*
X203560460Y-133426990D01*
X203531316Y-133426246D01*
X203483016Y-133431930D01*
X203446743Y-133454295D01*
X203408152Y-133501880D01*
X203376669Y-133550052D01*
X203357584Y-133586303D01*
X203354953Y-133595824D01*
X203341643Y-133622591D01*
X203325936Y-133638628D01*
X203301200Y-133674731D01*
X203296918Y-133695237D01*
X203279559Y-133741526D01*
X203234093Y-133789279D01*
X203170443Y-133832822D01*
X203098529Y-133866483D01*
X203028271Y-133884589D01*
X202970664Y-133881797D01*
X202927932Y-133871369D01*
X202884619Y-133862915D01*
X202819958Y-133833169D01*
X202769541Y-133771763D01*
X202735139Y-133683662D01*
X202718525Y-133573832D01*
X202721472Y-133447236D01*
X202725118Y-133416160D01*
X202736899Y-133346973D01*
X202750582Y-133293523D01*
X202763293Y-133266928D01*
X202763808Y-133266533D01*
X202812976Y-133252459D01*
X202868369Y-133262361D01*
X202898526Y-133281689D01*
X202914410Y-133302688D01*
X202916899Y-133328730D01*
X202905261Y-133371390D01*
X202890245Y-133412268D01*
X202864061Y-133487367D01*
X202854805Y-133538651D01*
X202862961Y-133577322D01*
X202889007Y-133614585D01*
X202899422Y-133626130D01*
X202957398Y-133666894D01*
X203018422Y-133671459D01*
X203078508Y-133641669D01*
X203133673Y-133579370D01*
X203175280Y-133498376D01*
X203197434Y-133452785D01*
X203217170Y-133427586D01*
X203221639Y-133425833D01*
X203237494Y-133410411D01*
X203238883Y-133400463D01*
X203253356Y-133365215D01*
X203297957Y-133314429D01*
X203363029Y-133255671D01*
X203399776Y-133230150D01*
X203441130Y-133217913D01*
X203501155Y-133215761D01*
X203533014Y-133216981D01*
G37*
G36*
X203566362Y-132332914D02*
G01*
X203618878Y-132357454D01*
X203673073Y-132389735D01*
X203717381Y-132422703D01*
X203740237Y-132449307D01*
X203741242Y-132453746D01*
X203752899Y-132476253D01*
X203759306Y-132477927D01*
X203780238Y-132495826D01*
X203797214Y-132544011D01*
X203809509Y-132614213D01*
X203816397Y-132698162D01*
X203817152Y-132787590D01*
X203811050Y-132874226D01*
X203799840Y-132939872D01*
X203775940Y-133001085D01*
X203736205Y-133030482D01*
X203674146Y-133034300D01*
X203644082Y-133028454D01*
X203626057Y-133013050D01*
X203619372Y-132981827D01*
X203623324Y-132928523D01*
X203637214Y-132846876D01*
X203647367Y-132794971D01*
X203659369Y-132727676D01*
X203660956Y-132683380D01*
X203650578Y-132647419D01*
X203627444Y-132606357D01*
X203582815Y-132552638D01*
X203541989Y-132536573D01*
X203502892Y-132548666D01*
X203456449Y-132577324D01*
X203415897Y-132612470D01*
X203394475Y-132644028D01*
X203393643Y-132649492D01*
X203381384Y-132673376D01*
X203379135Y-132674601D01*
X203363371Y-132694329D01*
X203338124Y-132738315D01*
X203318224Y-132777775D01*
X203274482Y-132850533D01*
X203217867Y-132922025D01*
X203193255Y-132947044D01*
X203140672Y-132990918D01*
X203095813Y-133012577D01*
X203041430Y-133019357D01*
X203022683Y-133019587D01*
X202916775Y-133005391D01*
X202827200Y-132965482D01*
X202768613Y-132911271D01*
X202745228Y-132858174D01*
X202728961Y-132777746D01*
X202720822Y-132680860D01*
X202721817Y-132578389D01*
X202730243Y-132497272D01*
X202746867Y-132390875D01*
X202820130Y-132393202D01*
X202882025Y-132400027D01*
X202912988Y-132419684D01*
X202916133Y-132458412D01*
X202894575Y-132522451D01*
X202890011Y-132533214D01*
X202865391Y-132604747D01*
X202857213Y-132662148D01*
X202859033Y-132677488D01*
X202882778Y-132733079D01*
X202920179Y-132783908D01*
X202961186Y-132818226D01*
X202986193Y-132826137D01*
X203040257Y-132808339D01*
X203095951Y-132759327D01*
X203146594Y-132685672D01*
X203163491Y-132651777D01*
X203190227Y-132598508D01*
X203212914Y-132563472D01*
X203222987Y-132555307D01*
X203237749Y-132539948D01*
X203238883Y-132530928D01*
X203255235Y-132491602D01*
X203297837Y-132444901D01*
X203357013Y-132397800D01*
X203423082Y-132357276D01*
X203486368Y-132330307D01*
X203527092Y-132323167D01*
X203566362Y-132332914D01*
G37*
G36*
X203807041Y-125634629D02*
G01*
X203816320Y-125694412D01*
X203818393Y-125764959D01*
X203813248Y-125827239D01*
X203807175Y-125851503D01*
X203783417Y-125880455D01*
X203739225Y-125913618D01*
X203724959Y-125922078D01*
X203661625Y-125958306D01*
X203592524Y-125999062D01*
X203577421Y-126008168D01*
X203515487Y-126044518D01*
X203456035Y-126077544D01*
X203442006Y-126084912D01*
X203340230Y-126139447D01*
X203244008Y-126195125D01*
X203158567Y-126248463D01*
X203089132Y-126295977D01*
X203040929Y-126334184D01*
X203019186Y-126359599D01*
X203019789Y-126366343D01*
X203043551Y-126371949D01*
X203099859Y-126377627D01*
X203182575Y-126382991D01*
X203285557Y-126387655D01*
X203402665Y-126391234D01*
X203423195Y-126391699D01*
X203541077Y-126394317D01*
X203644934Y-126396776D01*
X203728875Y-126398926D01*
X203787010Y-126400612D01*
X203813449Y-126401685D01*
X203814397Y-126401804D01*
X203817648Y-126420399D01*
X203815794Y-126460462D01*
X203809996Y-126505284D01*
X203805839Y-126524808D01*
X203800889Y-126534966D01*
X203789096Y-126542809D01*
X203766135Y-126548572D01*
X203727680Y-126552489D01*
X203669406Y-126554797D01*
X203586987Y-126555729D01*
X203476098Y-126555520D01*
X203332414Y-126554406D01*
X203271518Y-126553826D01*
X202746103Y-126548681D01*
X202731582Y-126447730D01*
X202726718Y-126365779D01*
X202736080Y-126300411D01*
X202757760Y-126259245D01*
X202781428Y-126248833D01*
X202816284Y-126235181D01*
X202831053Y-126221726D01*
X202859610Y-126199111D01*
X202911174Y-126167642D01*
X202964000Y-126139543D01*
X203059089Y-126089371D01*
X203145892Y-126038567D01*
X203213227Y-125993828D01*
X203233231Y-125978276D01*
X203263081Y-125960633D01*
X203272266Y-125958658D01*
X203296565Y-125948622D01*
X203339307Y-125923355D01*
X203359109Y-125910296D01*
X203409380Y-125880499D01*
X203450549Y-125863473D01*
X203460325Y-125861933D01*
X203485938Y-125849828D01*
X203487100Y-125823617D01*
X203464666Y-125798462D01*
X203456515Y-125794520D01*
X203426524Y-125790168D01*
X203365063Y-125786718D01*
X203279343Y-125784390D01*
X203176578Y-125783401D01*
X203096811Y-125783635D01*
X202978487Y-125783468D01*
X202878782Y-125781113D01*
X202803376Y-125776838D01*
X202757952Y-125770911D01*
X202747981Y-125767197D01*
X202734227Y-125735312D01*
X202731674Y-125680029D01*
X202732490Y-125669614D01*
X202739977Y-125591103D01*
X203267676Y-125591103D01*
X203795376Y-125591103D01*
X203807041Y-125634629D01*
G37*
G36*
X203614147Y-128106183D02*
G01*
X203669211Y-128149388D01*
X203712564Y-128190099D01*
X203730217Y-128212358D01*
X203758097Y-128257387D01*
X203785380Y-128296955D01*
X203802643Y-128329796D01*
X203812912Y-128376262D01*
X203817507Y-128445348D01*
X203818007Y-128519645D01*
X203815664Y-128603200D01*
X203810452Y-128675814D01*
X203803318Y-128725998D01*
X203800018Y-128737524D01*
X203778238Y-128775971D01*
X203762554Y-128791865D01*
X203743210Y-128820835D01*
X203741854Y-128831046D01*
X203727930Y-128862460D01*
X203693986Y-128904175D01*
X203651758Y-128944434D01*
X203612984Y-128971480D01*
X203596660Y-128976480D01*
X203563174Y-128989166D01*
X203538462Y-129008530D01*
X203503042Y-129024093D01*
X203438917Y-129035131D01*
X203355804Y-129041647D01*
X203310143Y-129042636D01*
X203263423Y-129043647D01*
X203171492Y-129041136D01*
X203089728Y-129034118D01*
X203027851Y-129022599D01*
X202997071Y-129008261D01*
X202958275Y-128982710D01*
X202932755Y-128976480D01*
X202895140Y-128960687D01*
X202846162Y-128917975D01*
X202793071Y-128855344D01*
X202763566Y-128813134D01*
X202746693Y-128780879D01*
X202735710Y-128740582D01*
X202729457Y-128683694D01*
X202726773Y-128601663D01*
X202726395Y-128539218D01*
X202726450Y-128526294D01*
X202852055Y-128526294D01*
X202863119Y-128579804D01*
X202891552Y-128642395D01*
X202930397Y-128703660D01*
X202972699Y-128753192D01*
X203011502Y-128780588D01*
X203023667Y-128783030D01*
X203046450Y-128798128D01*
X203049283Y-128804253D01*
X203070864Y-128815341D01*
X203122734Y-128825758D01*
X203196503Y-128833978D01*
X203223169Y-128835883D01*
X203310143Y-128839848D01*
X203371396Y-128837696D01*
X203419629Y-128827833D01*
X203467545Y-128808668D01*
X203477299Y-128804020D01*
X203545946Y-128766668D01*
X203589352Y-128728730D01*
X203619099Y-128677749D01*
X203636054Y-128633289D01*
X203652066Y-128538621D01*
X203634266Y-128438344D01*
X203613728Y-128386457D01*
X203576450Y-128337137D01*
X203517277Y-128291761D01*
X203504962Y-128284842D01*
X203417030Y-128254336D01*
X203308674Y-128239991D01*
X203194683Y-128241937D01*
X203089845Y-128260300D01*
X203034298Y-128280768D01*
X202964797Y-128328389D01*
X202905510Y-128394030D01*
X202865108Y-128466012D01*
X202852055Y-128526294D01*
X202726450Y-128526294D01*
X202726801Y-128444046D01*
X202729402Y-128378160D01*
X202736031Y-128332161D01*
X202748522Y-128296648D01*
X202768708Y-128262219D01*
X202785033Y-128238515D01*
X202838660Y-128175538D01*
X202904560Y-128115421D01*
X202930121Y-128096513D01*
X202966722Y-128072709D01*
X202998973Y-128056471D01*
X203035259Y-128046353D01*
X203083965Y-128040907D01*
X203153480Y-128038688D01*
X203252186Y-128038249D01*
X203267901Y-128038247D01*
X203519386Y-128038247D01*
X203614147Y-128106183D01*
G37*
G36*
X200343579Y-120736398D02*
G01*
X200489295Y-120738118D01*
X200623244Y-120740718D01*
X200740383Y-120744211D01*
X200835666Y-120748607D01*
X200904048Y-120753918D01*
X200915061Y-120755220D01*
X201038953Y-120775777D01*
X201158479Y-120803644D01*
X201261570Y-120835647D01*
X201326712Y-120863444D01*
X201370137Y-120882828D01*
X201398397Y-120890265D01*
X201430949Y-120902791D01*
X201482790Y-120936329D01*
X201546915Y-120984820D01*
X201616319Y-121042204D01*
X201683994Y-121102423D01*
X201742937Y-121159417D01*
X201786141Y-121207127D01*
X201806599Y-121239493D01*
X201807352Y-121243974D01*
X201817670Y-121270502D01*
X201842735Y-121311179D01*
X201844992Y-121314380D01*
X201892266Y-121398642D01*
X201930058Y-121507412D01*
X201960053Y-121646179D01*
X201973096Y-121731773D01*
X201985808Y-121827016D01*
X201993466Y-121896635D01*
X201996065Y-121953346D01*
X201993605Y-122009865D01*
X201986082Y-122078909D01*
X201973494Y-122173193D01*
X201973016Y-122176708D01*
X201960237Y-122259076D01*
X201946356Y-122330172D01*
X201933686Y-122378729D01*
X201929378Y-122389504D01*
X201910534Y-122426937D01*
X201881560Y-122485456D01*
X201853719Y-122542197D01*
X201771354Y-122674143D01*
X201660674Y-122797911D01*
X201530182Y-122906795D01*
X201388379Y-122994089D01*
X201243768Y-123053087D01*
X201188312Y-123067005D01*
X201134644Y-123082348D01*
X201095437Y-123101168D01*
X201093470Y-123102667D01*
X201072714Y-123108428D01*
X201024731Y-123113238D01*
X200947759Y-123117141D01*
X200840037Y-123120178D01*
X200699805Y-123122392D01*
X200525302Y-123123828D01*
X200314766Y-123124527D01*
X200193927Y-123124614D01*
X199321518Y-123124614D01*
X199321518Y-122776404D01*
X199321518Y-122428194D01*
X200066301Y-122416502D01*
X200295869Y-122412310D01*
X200489455Y-122407401D01*
X200649767Y-122401571D01*
X200779511Y-122394620D01*
X200881392Y-122386347D01*
X200958118Y-122376548D01*
X201012392Y-122365022D01*
X201046923Y-122351568D01*
X201059312Y-122342464D01*
X201093860Y-122323440D01*
X201105420Y-122321796D01*
X201131960Y-122309083D01*
X201174895Y-122276102D01*
X201214887Y-122239580D01*
X201291818Y-122141321D01*
X201332542Y-122031415D01*
X201337709Y-121907575D01*
X201327703Y-121842285D01*
X201289730Y-121739625D01*
X201219796Y-121648941D01*
X201115259Y-121567212D01*
X201057272Y-121533121D01*
X200965844Y-121483343D01*
X200153463Y-121475308D01*
X199936505Y-121472823D01*
X199756172Y-121469987D01*
X199610398Y-121466722D01*
X199497118Y-121462952D01*
X199414266Y-121458601D01*
X199359778Y-121453593D01*
X199331588Y-121447851D01*
X199326760Y-121444763D01*
X199319939Y-121414831D01*
X199315150Y-121355073D01*
X199312294Y-121273452D01*
X199311276Y-121177927D01*
X199311999Y-121076459D01*
X199314368Y-120977010D01*
X199318285Y-120887541D01*
X199323655Y-120816012D01*
X199330381Y-120770385D01*
X199335060Y-120758719D01*
X199359653Y-120753013D01*
X199417883Y-120748088D01*
X199504706Y-120743953D01*
X199615077Y-120740622D01*
X199743951Y-120738105D01*
X199886283Y-120736412D01*
X200037028Y-120735556D01*
X200191142Y-120735548D01*
X200343579Y-120736398D01*
G37*
G36*
X200192248Y-135108418D02*
G01*
X200344508Y-135109417D01*
X200489937Y-135111323D01*
X200623478Y-135114145D01*
X200740072Y-135117893D01*
X200834664Y-135122575D01*
X200902197Y-135128200D01*
X200911246Y-135129335D01*
X201043881Y-135151516D01*
X201166682Y-135179955D01*
X201269178Y-135211946D01*
X201326712Y-135236788D01*
X201370986Y-135256229D01*
X201400606Y-135263609D01*
X201431917Y-135275397D01*
X201482347Y-135306559D01*
X201544017Y-135350791D01*
X201609045Y-135401790D01*
X201669552Y-135453251D01*
X201717655Y-135498870D01*
X201745476Y-135532344D01*
X201749317Y-135542550D01*
X201759739Y-135563041D01*
X201786730Y-135604656D01*
X201815484Y-135645794D01*
X201854901Y-135707304D01*
X201885058Y-135766342D01*
X201895532Y-135795762D01*
X201911172Y-135844779D01*
X201927339Y-135876463D01*
X201938098Y-135904970D01*
X201951722Y-135961214D01*
X201966340Y-136034535D01*
X201980079Y-136114273D01*
X201991067Y-136189766D01*
X201997431Y-136250354D01*
X201998070Y-136279222D01*
X201995313Y-136314530D01*
X201990012Y-136377874D01*
X201983054Y-136458753D01*
X201978542Y-136510313D01*
X201968756Y-136596842D01*
X201956303Y-136672135D01*
X201943131Y-136725588D01*
X201935899Y-136742453D01*
X201911456Y-136792303D01*
X201896752Y-136836762D01*
X201881399Y-136875060D01*
X201852452Y-136930604D01*
X201816214Y-136992982D01*
X201778986Y-137051783D01*
X201747071Y-137096594D01*
X201727254Y-137116800D01*
X201707673Y-137132180D01*
X201669064Y-137166492D01*
X201626581Y-137205933D01*
X201556369Y-137263627D01*
X201474176Y-137319225D01*
X201429830Y-137344204D01*
X201371607Y-137375257D01*
X201328606Y-137401167D01*
X201311730Y-137414667D01*
X201287567Y-137425535D01*
X201242405Y-137430357D01*
X201240369Y-137430369D01*
X201178493Y-137440475D01*
X201120605Y-137463439D01*
X201103739Y-137471321D01*
X201081078Y-137477858D01*
X201049104Y-137483179D01*
X201004298Y-137487410D01*
X200943141Y-137490681D01*
X200862114Y-137493118D01*
X200757700Y-137494850D01*
X200626379Y-137496005D01*
X200464633Y-137496709D01*
X200268944Y-137497092D01*
X200192044Y-137497174D01*
X199321518Y-137497958D01*
X199315988Y-137188437D01*
X199314746Y-137079731D01*
X199314934Y-136982023D01*
X199316436Y-136903056D01*
X199319139Y-136850572D01*
X199321193Y-136835391D01*
X199331928Y-136791865D01*
X199955436Y-136791918D01*
X200223362Y-136790405D01*
X200454873Y-136785833D01*
X200649595Y-136778227D01*
X200807156Y-136767609D01*
X200927182Y-136754005D01*
X201009300Y-136737437D01*
X201047380Y-136722109D01*
X201087189Y-136701573D01*
X201110543Y-136695140D01*
X201143126Y-136680067D01*
X201187497Y-136641059D01*
X201235659Y-136587430D01*
X201279619Y-136528496D01*
X201311380Y-136473570D01*
X201320027Y-136451083D01*
X201342582Y-136320683D01*
X201329699Y-136204404D01*
X201280727Y-136099430D01*
X201222297Y-136028805D01*
X201177938Y-135986879D01*
X201132638Y-135951769D01*
X201082631Y-135922877D01*
X201024152Y-135899609D01*
X200953435Y-135881368D01*
X200866716Y-135867558D01*
X200760230Y-135857582D01*
X200630211Y-135850845D01*
X200472895Y-135846751D01*
X200284516Y-135844704D01*
X200061308Y-135844107D01*
X200055662Y-135844105D01*
X199857838Y-135843696D01*
X199696074Y-135842503D01*
X199567748Y-135840441D01*
X199470236Y-135837426D01*
X199400916Y-135833371D01*
X199357163Y-135828192D01*
X199336356Y-135821804D01*
X199335060Y-135820745D01*
X199325922Y-135792571D01*
X199318914Y-135733829D01*
X199314036Y-135652587D01*
X199311288Y-135556907D01*
X199310670Y-135454855D01*
X199312182Y-135354496D01*
X199315824Y-135263894D01*
X199321596Y-135191115D01*
X199329498Y-135144223D01*
X199335060Y-135132063D01*
X199359923Y-135126114D01*
X199418410Y-135121002D01*
X199505464Y-135116738D01*
X199616028Y-135113328D01*
X199745046Y-135110783D01*
X199887459Y-135109110D01*
X200038212Y-135108319D01*
X200192248Y-135108418D01*
G37*
G36*
X201474907Y-118088626D02*
G01*
X201585307Y-118131509D01*
X201685545Y-118201509D01*
X201754624Y-118268919D01*
X201801718Y-118329611D01*
X201846191Y-118403161D01*
X201881662Y-118477158D01*
X201901753Y-118539195D01*
X201904077Y-118559639D01*
X201910845Y-118599545D01*
X201921905Y-118616288D01*
X201932955Y-118639976D01*
X201943913Y-118690640D01*
X201951383Y-118748009D01*
X201954047Y-118793280D01*
X201956658Y-118870092D01*
X201959166Y-118972994D01*
X201961519Y-119096536D01*
X201963667Y-119235268D01*
X201965559Y-119383737D01*
X201967143Y-119536494D01*
X201968369Y-119688087D01*
X201969185Y-119833067D01*
X201969540Y-119965982D01*
X201969384Y-120081381D01*
X201968665Y-120173815D01*
X201967332Y-120237832D01*
X201965603Y-120266389D01*
X201954458Y-120295983D01*
X201924694Y-120308407D01*
X201888223Y-120310446D01*
X201700257Y-120311593D01*
X201499769Y-120312353D01*
X201290241Y-120312746D01*
X201116853Y-120312785D01*
X201075157Y-120312794D01*
X200858001Y-120312518D01*
X200642256Y-120311940D01*
X200431405Y-120311080D01*
X200228933Y-120309959D01*
X200164375Y-120309499D01*
X200038322Y-120308600D01*
X199863056Y-120307022D01*
X199706619Y-120305247D01*
X199572494Y-120303296D01*
X199464164Y-120301191D01*
X199385114Y-120298952D01*
X199338826Y-120296601D01*
X199327779Y-120294896D01*
X199324214Y-120272384D01*
X199321168Y-120215018D01*
X199318692Y-120126631D01*
X199316840Y-120011056D01*
X199315663Y-119872126D01*
X199315215Y-119713673D01*
X199315546Y-119539532D01*
X199316084Y-119437824D01*
X199316979Y-119299415D01*
X199930886Y-119299415D01*
X199932054Y-119411842D01*
X199938574Y-119491304D01*
X199954973Y-119543513D01*
X199985780Y-119574186D01*
X200035521Y-119589036D01*
X200108724Y-119593778D01*
X200164375Y-119594149D01*
X200240315Y-119593094D01*
X200286869Y-119588326D01*
X200313316Y-119577448D01*
X200328938Y-119558058D01*
X200332710Y-119550623D01*
X200342398Y-119509797D01*
X200349072Y-119440598D01*
X200352510Y-119353245D01*
X200352501Y-119300069D01*
X200915118Y-119300069D01*
X200918217Y-119395886D01*
X200924635Y-119477275D01*
X200934409Y-119535795D01*
X200945465Y-119561334D01*
X200979847Y-119576327D01*
X201040908Y-119586777D01*
X201116853Y-119592223D01*
X201195887Y-119592204D01*
X201266216Y-119586260D01*
X201311823Y-119575653D01*
X201362417Y-119556417D01*
X201362417Y-119266558D01*
X201361636Y-119147488D01*
X201358848Y-119060059D01*
X201353383Y-118997245D01*
X201344573Y-118952021D01*
X201331750Y-118917361D01*
X201328563Y-118910921D01*
X201280243Y-118855516D01*
X201210839Y-118822229D01*
X201131224Y-118811372D01*
X201052273Y-118823254D01*
X200984860Y-118858187D01*
X200948202Y-118900056D01*
X200935225Y-118941374D01*
X200925393Y-119010477D01*
X200918741Y-119098922D01*
X200915304Y-119198267D01*
X200915118Y-119300069D01*
X200352501Y-119300069D01*
X200352494Y-119257954D01*
X200348803Y-119164942D01*
X200342531Y-119094645D01*
X200321698Y-119018412D01*
X200284647Y-118954394D01*
X200244618Y-118916379D01*
X200198939Y-118900277D01*
X200152545Y-118897729D01*
X200077465Y-118902519D01*
X200021072Y-118919934D01*
X199980844Y-118954546D01*
X199954259Y-119010924D01*
X199938796Y-119093638D01*
X199931931Y-119207258D01*
X199930886Y-119299415D01*
X199316979Y-119299415D01*
X199321518Y-118597881D01*
X199396205Y-118491484D01*
X199509111Y-118363049D01*
X199645163Y-118265033D01*
X199801799Y-118198939D01*
X199944854Y-118169489D01*
X200062112Y-118171087D01*
X200187165Y-118199142D01*
X200310504Y-118249049D01*
X200422623Y-118316205D01*
X200514015Y-118396003D01*
X200569121Y-118471858D01*
X200590589Y-118499662D01*
X200613793Y-118494421D01*
X200618983Y-118490364D01*
X200642566Y-118462293D01*
X200646652Y-118449642D01*
X200656960Y-118423605D01*
X200682504Y-118381410D01*
X200690178Y-118370269D01*
X200786423Y-118251485D01*
X200886401Y-118166586D01*
X200997877Y-118110980D01*
X201128614Y-118080073D01*
X201192165Y-118073272D01*
X201346481Y-118070126D01*
X201474907Y-118088626D01*
G37*
G36*
X201434983Y-125622266D02*
G01*
X201506235Y-125653941D01*
X201588141Y-125713254D01*
X201676061Y-125797446D01*
X201676239Y-125797637D01*
X201722437Y-125853576D01*
X201772611Y-125924506D01*
X201821309Y-126001342D01*
X201863084Y-126075001D01*
X201892485Y-126136399D01*
X201904062Y-126176453D01*
X201904077Y-126177390D01*
X201912638Y-126221670D01*
X201925019Y-126242692D01*
X201935501Y-126268852D01*
X201948694Y-126323594D01*
X201962966Y-126397052D01*
X201976685Y-126479364D01*
X201988218Y-126560664D01*
X201995933Y-126631090D01*
X201998198Y-126680777D01*
X201998068Y-126684096D01*
X201994005Y-126721069D01*
X201985046Y-126783840D01*
X201972973Y-126860096D01*
X201970385Y-126875621D01*
X201955862Y-126950053D01*
X201940429Y-127010203D01*
X201926943Y-127045317D01*
X201924381Y-127048759D01*
X201905533Y-127085407D01*
X201904077Y-127097353D01*
X201893318Y-127132602D01*
X201864636Y-127187884D01*
X201823426Y-127255446D01*
X201775080Y-127327536D01*
X201724992Y-127396400D01*
X201678557Y-127454286D01*
X201641167Y-127493442D01*
X201619600Y-127506259D01*
X201596506Y-127517230D01*
X201594557Y-127524119D01*
X201578532Y-127545034D01*
X201534866Y-127579769D01*
X201470179Y-127624160D01*
X201391086Y-127674044D01*
X201304205Y-127725257D01*
X201216153Y-127773637D01*
X201133548Y-127815019D01*
X201128295Y-127817474D01*
X201089830Y-127830593D01*
X201022144Y-127849040D01*
X200933974Y-127870662D01*
X200834058Y-127893305D01*
X200743377Y-127912359D01*
X200650687Y-127923832D01*
X200555004Y-127918346D01*
X200511237Y-127911460D01*
X200351993Y-127880660D01*
X200222086Y-127849018D01*
X200112244Y-127813234D01*
X200013191Y-127770009D01*
X199915653Y-127716042D01*
X199855612Y-127678187D01*
X199707450Y-127560540D01*
X199573684Y-127412796D01*
X199461009Y-127242772D01*
X199426736Y-127177285D01*
X199392978Y-127108944D01*
X199363141Y-127050035D01*
X199343629Y-127013198D01*
X199343494Y-127012961D01*
X199334766Y-126978652D01*
X199326969Y-126911430D01*
X199320567Y-126817069D01*
X199316028Y-126701342D01*
X199315037Y-126660395D01*
X199313147Y-126536370D01*
X199313650Y-126444513D01*
X199316964Y-126378355D01*
X199323504Y-126331423D01*
X199333688Y-126297249D01*
X199339207Y-126285031D01*
X199359903Y-126237828D01*
X199369749Y-126204119D01*
X199369881Y-126201842D01*
X199381276Y-126156957D01*
X199412039Y-126093184D01*
X199457039Y-126017604D01*
X199511146Y-125937295D01*
X199569228Y-125859339D01*
X199626154Y-125790815D01*
X199676793Y-125738802D01*
X199716014Y-125710381D01*
X199728392Y-125707173D01*
X199761063Y-125692415D01*
X199770329Y-125681241D01*
X199801462Y-125655555D01*
X199845995Y-125641463D01*
X199883274Y-125645152D01*
X199885718Y-125646673D01*
X199909806Y-125670914D01*
X199947636Y-125716566D01*
X199992960Y-125775154D01*
X200039532Y-125838206D01*
X200081102Y-125897248D01*
X200111425Y-125943805D01*
X200124253Y-125969404D01*
X200124336Y-125970324D01*
X200135423Y-125989884D01*
X200163670Y-126028623D01*
X200183880Y-126054365D01*
X200218747Y-126101200D01*
X200230951Y-126131877D01*
X200224116Y-126158632D01*
X200217916Y-126169301D01*
X200195043Y-126200380D01*
X200182554Y-126210189D01*
X200158951Y-126223496D01*
X200120046Y-126257056D01*
X200075428Y-126301502D01*
X200034687Y-126347467D01*
X200014250Y-126374576D01*
X199987101Y-126436783D01*
X199967690Y-126524403D01*
X199957733Y-126624632D01*
X199958948Y-126724663D01*
X199962629Y-126759471D01*
X199983003Y-126832524D01*
X200027462Y-126904597D01*
X200052755Y-126935320D01*
X200161129Y-127031788D01*
X200292072Y-127102820D01*
X200438916Y-127148318D01*
X200594992Y-127168182D01*
X200753629Y-127162314D01*
X200908160Y-127130615D01*
X201051915Y-127072988D01*
X201178224Y-126989333D01*
X201218414Y-126952552D01*
X201278423Y-126869496D01*
X201320025Y-126768675D01*
X201338975Y-126702578D01*
X201346526Y-126654090D01*
X201342914Y-126606259D01*
X201328375Y-126542132D01*
X201323441Y-126523031D01*
X201284756Y-126417365D01*
X201229813Y-126324846D01*
X201165140Y-126254961D01*
X201118272Y-126224906D01*
X201082530Y-126194395D01*
X201074346Y-126145810D01*
X201093825Y-126075929D01*
X201125441Y-126009872D01*
X201156169Y-125954496D01*
X201180579Y-125914341D01*
X201190962Y-125900623D01*
X201210608Y-125875698D01*
X201240641Y-125827818D01*
X201274215Y-125768668D01*
X201304484Y-125709931D01*
X201311719Y-125694528D01*
X201341774Y-125649078D01*
X201376873Y-125621747D01*
X201379029Y-125620988D01*
X201434983Y-125622266D01*
G37*
G36*
X201480166Y-137831742D02*
G01*
X201623090Y-137900649D01*
X201671937Y-137931829D01*
X201709133Y-137965099D01*
X201755083Y-138017381D01*
X201802699Y-138079014D01*
X201844892Y-138140335D01*
X201874572Y-138191685D01*
X201884732Y-138221835D01*
X201890246Y-138247229D01*
X201904651Y-138298046D01*
X201923423Y-138358811D01*
X201933078Y-138391153D01*
X201940986Y-138424614D01*
X201947318Y-138463266D01*
X201952250Y-138511184D01*
X201955953Y-138572442D01*
X201958601Y-138651114D01*
X201960367Y-138751274D01*
X201961425Y-138876995D01*
X201961948Y-139032351D01*
X201962108Y-139221417D01*
X201962113Y-139268476D01*
X201961938Y-139467783D01*
X201961337Y-139631715D01*
X201960196Y-139763585D01*
X201958400Y-139866709D01*
X201955836Y-139944401D01*
X201952389Y-139999973D01*
X201947945Y-140036740D01*
X201942389Y-140058017D01*
X201935608Y-140067116D01*
X201934569Y-140067602D01*
X201910943Y-140069430D01*
X201851909Y-140071190D01*
X201760747Y-140072852D01*
X201640740Y-140074388D01*
X201495168Y-140075767D01*
X201327313Y-140076961D01*
X201178897Y-140077739D01*
X201140457Y-140077941D01*
X200937881Y-140078676D01*
X200722866Y-140079138D01*
X200631065Y-140079242D01*
X200371700Y-140079350D01*
X200148434Y-140079171D01*
X200091599Y-140079016D01*
X199958678Y-140078654D01*
X199799843Y-140077747D01*
X199669337Y-140076401D01*
X199564572Y-140074563D01*
X199482958Y-140072181D01*
X199421905Y-140069206D01*
X199378823Y-140065585D01*
X199351123Y-140061267D01*
X199336215Y-140056201D01*
X199332880Y-140053534D01*
X199327883Y-140028623D01*
X199323721Y-139970167D01*
X199320374Y-139882977D01*
X199317818Y-139771865D01*
X199316032Y-139641645D01*
X199314992Y-139497127D01*
X199314678Y-139343125D01*
X199315067Y-139184449D01*
X199315923Y-139057437D01*
X199930886Y-139057437D01*
X199931464Y-139169292D01*
X199936305Y-139248043D01*
X199950075Y-139299273D01*
X199977438Y-139328567D01*
X200023058Y-139341509D01*
X200091599Y-139343682D01*
X200168047Y-139341349D01*
X200327459Y-139335734D01*
X200338740Y-139258354D01*
X200344714Y-139189564D01*
X200346679Y-139101558D01*
X200345077Y-139004642D01*
X200342388Y-138950270D01*
X200917151Y-138950270D01*
X200917330Y-139050857D01*
X200919702Y-139146436D01*
X200924242Y-139228798D01*
X200930927Y-139289737D01*
X200939735Y-139321042D01*
X200940696Y-139322192D01*
X200969888Y-139332600D01*
X201026666Y-139340158D01*
X201100009Y-139344545D01*
X201178897Y-139345441D01*
X201252307Y-139342524D01*
X201309220Y-139335473D01*
X201318891Y-139333213D01*
X201335407Y-139327483D01*
X201347108Y-139316641D01*
X201354824Y-139294778D01*
X201359383Y-139255980D01*
X201361615Y-139194336D01*
X201362350Y-139103935D01*
X201362417Y-139022997D01*
X201361600Y-138900714D01*
X201358757Y-138810488D01*
X201353303Y-138745714D01*
X201344652Y-138699785D01*
X201332216Y-138666096D01*
X201330427Y-138662534D01*
X201286510Y-138596909D01*
X201231474Y-138559338D01*
X201173321Y-138542993D01*
X201104895Y-138546318D01*
X201032078Y-138574280D01*
X200970205Y-138619097D01*
X200938819Y-138662011D01*
X200929998Y-138700546D01*
X200923461Y-138766907D01*
X200919187Y-138852884D01*
X200917151Y-138950270D01*
X200342388Y-138950270D01*
X200340353Y-138909122D01*
X200332950Y-138825304D01*
X200323312Y-138763492D01*
X200316457Y-138740846D01*
X200281238Y-138697209D01*
X200225356Y-138657525D01*
X200166175Y-138632878D01*
X200142259Y-138629641D01*
X200085121Y-138642856D01*
X200023667Y-138675946D01*
X199973094Y-138719076D01*
X199950951Y-138753434D01*
X199943256Y-138794006D01*
X199936926Y-138863679D01*
X199932594Y-138952870D01*
X199930891Y-139051997D01*
X199930886Y-139057437D01*
X199315923Y-139057437D01*
X199316135Y-139025913D01*
X199317863Y-138872329D01*
X199320226Y-138728508D01*
X199323203Y-138599263D01*
X199326772Y-138489406D01*
X199330910Y-138403749D01*
X199335596Y-138347104D01*
X199340806Y-138324283D01*
X199340863Y-138324240D01*
X199360933Y-138298857D01*
X199386424Y-138253228D01*
X199392535Y-138240451D01*
X199438618Y-138173065D01*
X199515551Y-138098756D01*
X199617475Y-138022822D01*
X199669729Y-137989658D01*
X199705400Y-137969947D01*
X199740832Y-137956718D01*
X199784650Y-137948720D01*
X199845481Y-137944706D01*
X199931952Y-137943424D01*
X199988921Y-137943421D01*
X200091494Y-137944196D01*
X200164156Y-137946905D01*
X200215680Y-137952912D01*
X200254842Y-137963578D01*
X200290415Y-137980268D01*
X200313988Y-137993921D01*
X200371723Y-138032852D01*
X200433698Y-138081310D01*
X200491967Y-138132166D01*
X200538582Y-138178292D01*
X200565597Y-138212558D01*
X200569272Y-138222916D01*
X200580079Y-138242691D01*
X200604866Y-138237827D01*
X200632180Y-138212840D01*
X200643463Y-138193651D01*
X200705937Y-138092799D01*
X200795432Y-137995511D01*
X200900812Y-137911741D01*
X201010940Y-137851446D01*
X201037590Y-137841316D01*
X201193025Y-137802876D01*
X201338681Y-137799418D01*
X201480166Y-137831742D01*
G37*
G36*
X200762166Y-128953525D02*
G01*
X200892309Y-128965439D01*
X201007728Y-128983923D01*
X201098417Y-129007605D01*
X201124379Y-129017711D01*
X201179396Y-129039681D01*
X201222520Y-129052504D01*
X201233004Y-129053860D01*
X201266642Y-129065119D01*
X201309248Y-129092226D01*
X201309661Y-129092550D01*
X201352805Y-129119815D01*
X201387739Y-129131240D01*
X201387877Y-129131240D01*
X201413700Y-129144508D01*
X201458546Y-129179883D01*
X201515663Y-129230726D01*
X201578298Y-129290393D01*
X201639702Y-129352245D01*
X201693122Y-129409640D01*
X201731808Y-129455937D01*
X201749008Y-129484494D01*
X201749317Y-129486787D01*
X201761098Y-129520529D01*
X201769382Y-129528258D01*
X201791505Y-129554722D01*
X201821339Y-129606255D01*
X201853411Y-129671548D01*
X201882246Y-129739296D01*
X201902372Y-129798191D01*
X201904965Y-129808315D01*
X201920181Y-129871515D01*
X201938284Y-129944685D01*
X201942917Y-129963076D01*
X201949053Y-130005788D01*
X201954455Y-130078895D01*
X201959081Y-130176734D01*
X201962891Y-130293640D01*
X201965843Y-130423950D01*
X201967896Y-130562001D01*
X201969009Y-130702128D01*
X201969140Y-130838669D01*
X201968248Y-130965960D01*
X201966293Y-131078337D01*
X201963233Y-131170137D01*
X201959026Y-131235696D01*
X201953631Y-131269350D01*
X201952440Y-131271710D01*
X201942633Y-131276994D01*
X201919964Y-131281551D01*
X201881924Y-131285432D01*
X201826006Y-131288689D01*
X201749703Y-131291371D01*
X201650507Y-131293530D01*
X201525911Y-131295217D01*
X201373407Y-131296482D01*
X201190487Y-131297377D01*
X200974644Y-131297952D01*
X200723371Y-131298258D01*
X200640775Y-131298304D01*
X200420461Y-131298237D01*
X200408465Y-131298215D01*
X200211450Y-131297852D01*
X200016973Y-131297177D01*
X199840257Y-131296238D01*
X199684531Y-131295061D01*
X199553026Y-131293672D01*
X199448968Y-131292099D01*
X199375587Y-131290367D01*
X199336112Y-131288503D01*
X199330151Y-131287566D01*
X199325116Y-131265511D01*
X199320737Y-131208255D01*
X199317117Y-131119283D01*
X199314360Y-131002079D01*
X199312571Y-130860129D01*
X199311855Y-130696918D01*
X199311846Y-130675507D01*
X199312055Y-130502908D01*
X199312492Y-130427854D01*
X199948667Y-130427854D01*
X199949936Y-130476997D01*
X199960084Y-130514533D01*
X199982701Y-130542007D01*
X200021376Y-130560967D01*
X200079699Y-130572958D01*
X200161262Y-130579527D01*
X200269654Y-130582220D01*
X200408465Y-130582584D01*
X200581285Y-130582164D01*
X200639977Y-130582116D01*
X200812519Y-130582008D01*
X200950534Y-130581529D01*
X201058186Y-130580444D01*
X201139639Y-130578518D01*
X201199056Y-130575515D01*
X201240602Y-130571201D01*
X201268438Y-130565342D01*
X201286730Y-130557702D01*
X201299640Y-130548046D01*
X201303097Y-130544712D01*
X201322158Y-130519446D01*
X201333604Y-130485195D01*
X201337766Y-130435338D01*
X201334977Y-130363254D01*
X201325568Y-130262323D01*
X201319839Y-130210766D01*
X201289372Y-130063579D01*
X201233227Y-129943755D01*
X201148699Y-129847526D01*
X201033083Y-129771124D01*
X200989286Y-129750338D01*
X200892897Y-129719026D01*
X200776550Y-129697384D01*
X200657668Y-129687604D01*
X200553673Y-129691875D01*
X200540254Y-129693893D01*
X200462642Y-129706842D01*
X200384277Y-129719598D01*
X200361523Y-129723217D01*
X200305294Y-129737171D01*
X200264583Y-129756314D01*
X200257593Y-129762554D01*
X200224686Y-129785644D01*
X200209020Y-129788970D01*
X200184764Y-129797449D01*
X200182316Y-129803479D01*
X200167730Y-129822747D01*
X200131923Y-129851384D01*
X200124168Y-129856678D01*
X200081383Y-129893411D01*
X200055066Y-129931003D01*
X200053978Y-129934058D01*
X200033929Y-129978292D01*
X200006997Y-130022315D01*
X199989082Y-130059184D01*
X199975550Y-130115969D01*
X199965175Y-130199394D01*
X199958404Y-130288562D01*
X199952686Y-130365558D01*
X199948667Y-130427854D01*
X199312492Y-130427854D01*
X199312866Y-130363715D01*
X199314556Y-130252645D01*
X199317402Y-130164415D01*
X199321681Y-130093741D01*
X199327671Y-130035341D01*
X199335648Y-129983931D01*
X199345889Y-129934230D01*
X199352110Y-129907684D01*
X199374908Y-129823729D01*
X199400166Y-129747229D01*
X199423403Y-129691355D01*
X199429490Y-129680290D01*
X199454209Y-129634309D01*
X199466350Y-129600325D01*
X199466606Y-129597243D01*
X199478028Y-129570276D01*
X199508008Y-129522569D01*
X199550118Y-129462921D01*
X199597933Y-129400132D01*
X199645023Y-129343004D01*
X199679803Y-129305345D01*
X199739254Y-129250792D01*
X199802287Y-129199884D01*
X199859997Y-129159128D01*
X199903480Y-129135033D01*
X199918010Y-129131240D01*
X199949137Y-129115660D01*
X199956838Y-129103236D01*
X199980823Y-129081480D01*
X200028449Y-129059852D01*
X200050796Y-129052983D01*
X200106844Y-129035390D01*
X200147975Y-129017856D01*
X200156065Y-129012674D01*
X200187964Y-129000263D01*
X200249261Y-128986982D01*
X200330719Y-128974068D01*
X200423102Y-128962757D01*
X200517176Y-128954287D01*
X200603704Y-128949894D01*
X200627307Y-128949554D01*
X200762166Y-128953525D01*
G37*
G36*
X196714321Y-123066671D02*
G01*
X196885211Y-123067033D01*
X197024320Y-123067796D01*
X197135102Y-123069090D01*
X197221012Y-123071047D01*
X197285505Y-123073796D01*
X197332034Y-123077467D01*
X197364055Y-123082193D01*
X197385021Y-123088102D01*
X197398387Y-123095325D01*
X197404284Y-123100433D01*
X197441114Y-123126853D01*
X197465779Y-123134287D01*
X197490651Y-123143161D01*
X197493415Y-123149984D01*
X197505416Y-123173715D01*
X197534492Y-123209757D01*
X197536428Y-123211850D01*
X197554841Y-123235523D01*
X197567988Y-123265371D01*
X197577336Y-123308981D01*
X197584352Y-123373938D01*
X197590501Y-123467830D01*
X197592294Y-123500837D01*
X197597991Y-123595977D01*
X197604162Y-123678531D01*
X197610087Y-123739991D01*
X197615046Y-123771847D01*
X197615311Y-123772672D01*
X197620104Y-123800939D01*
X197626912Y-123860729D01*
X197635040Y-123944972D01*
X197643793Y-124046595D01*
X197650076Y-124126352D01*
X197674677Y-124451015D01*
X197734593Y-124488045D01*
X197790867Y-124515020D01*
X197861978Y-124539323D01*
X197889820Y-124546435D01*
X197949018Y-124561880D01*
X197993011Y-124577286D01*
X198005267Y-124583917D01*
X198036833Y-124598445D01*
X198087076Y-124612444D01*
X198093110Y-124613709D01*
X198143687Y-124628644D01*
X198214644Y-124655438D01*
X198291748Y-124688662D01*
X198301807Y-124693323D01*
X198370805Y-124724392D01*
X198427673Y-124747800D01*
X198462303Y-124759444D01*
X198466240Y-124760035D01*
X198495193Y-124769162D01*
X198545092Y-124791873D01*
X198586408Y-124813234D01*
X198643417Y-124847534D01*
X198671426Y-124875352D01*
X198677511Y-124904185D01*
X198676951Y-124909191D01*
X198665814Y-124943203D01*
X198654074Y-124952718D01*
X198635069Y-124968528D01*
X198626365Y-124987416D01*
X198607075Y-125021326D01*
X198570433Y-125068464D01*
X198547681Y-125093859D01*
X198509067Y-125136902D01*
X198484566Y-125168259D01*
X198480010Y-125177297D01*
X198468965Y-125197550D01*
X198440269Y-125238341D01*
X198407467Y-125281396D01*
X198362857Y-125339264D01*
X198324147Y-125391263D01*
X198305905Y-125417083D01*
X198278577Y-125454667D01*
X198236363Y-125509358D01*
X198194672Y-125561545D01*
X198153004Y-125615417D01*
X198123423Y-125658608D01*
X198112455Y-125681391D01*
X198099090Y-125704323D01*
X198065253Y-125740964D01*
X198044748Y-125759998D01*
X198004473Y-125799392D01*
X197980228Y-125830319D01*
X197977040Y-125838868D01*
X197963240Y-125862618D01*
X197920770Y-125869752D01*
X197848026Y-125860099D01*
X197743401Y-125833489D01*
X197648175Y-125803977D01*
X197572498Y-125778217D01*
X197502098Y-125752449D01*
X197458905Y-125735072D01*
X197399397Y-125715569D01*
X197343861Y-125707180D01*
X197342707Y-125707173D01*
X197287033Y-125701147D01*
X197224828Y-125686572D01*
X197222457Y-125685833D01*
X197109022Y-125658723D01*
X196965679Y-125637904D01*
X196800710Y-125623465D01*
X196622397Y-125615496D01*
X196439022Y-125614089D01*
X196258866Y-125619331D01*
X196090213Y-125631314D01*
X195941343Y-125650127D01*
X195839416Y-125670821D01*
X195770990Y-125686467D01*
X195691801Y-125702250D01*
X195665311Y-125706975D01*
X195571876Y-125728307D01*
X195461515Y-125761489D01*
X195351790Y-125800832D01*
X195275487Y-125833284D01*
X195226528Y-125852899D01*
X195189873Y-125861875D01*
X195188052Y-125861933D01*
X195157933Y-125870711D01*
X195106440Y-125893517D01*
X195055561Y-125919641D01*
X194990345Y-125954164D01*
X194931763Y-125983528D01*
X194901183Y-125997595D01*
X194850748Y-126019123D01*
X194814971Y-126036563D01*
X194776520Y-126058999D01*
X194736751Y-126083785D01*
X194679453Y-126117907D01*
X194628082Y-126145532D01*
X194614388Y-126151978D01*
X194567824Y-126178346D01*
X194542357Y-126198651D01*
X194509114Y-126225458D01*
X194459074Y-126259428D01*
X194442252Y-126269862D01*
X194379670Y-126314062D01*
X194297713Y-126381276D01*
X194202661Y-126465551D01*
X194100791Y-126560936D01*
X193998382Y-126661482D01*
X193901711Y-126761235D01*
X193817057Y-126854247D01*
X193780763Y-126896891D01*
X193682284Y-127022448D01*
X193585375Y-127157505D01*
X193497405Y-127291155D01*
X193425738Y-127412489D01*
X193401900Y-127457897D01*
X193370759Y-127518184D01*
X193345449Y-127563493D01*
X193331756Y-127583639D01*
X193319062Y-127605920D01*
X193299211Y-127653090D01*
X193283689Y-127694873D01*
X193261607Y-127750449D01*
X193242294Y-127787339D01*
X193232972Y-127796434D01*
X193221042Y-127812718D01*
X193218167Y-127836186D01*
X193210327Y-127877829D01*
X193190638Y-127935109D01*
X193181232Y-127957092D01*
X193154089Y-128027670D01*
X193133219Y-128100636D01*
X193130124Y-128115627D01*
X193114382Y-128175691D01*
X193093717Y-128224679D01*
X193089680Y-128231165D01*
X193073854Y-128273119D01*
X193064495Y-128334586D01*
X193063407Y-128362705D01*
X193056356Y-128433768D01*
X193038681Y-128500005D01*
X193030672Y-128517997D01*
X193020697Y-128541164D01*
X193012920Y-128571600D01*
X193007070Y-128614049D01*
X193002876Y-128673257D01*
X193000067Y-128753970D01*
X192998371Y-128860934D01*
X192997518Y-128998893D01*
X192997294Y-129102223D01*
X192997771Y-129283385D01*
X192999776Y-129428822D01*
X193003427Y-129541472D01*
X193008842Y-129624274D01*
X193016139Y-129680166D01*
X193021442Y-129701918D01*
X193040355Y-129770401D01*
X193058147Y-129849643D01*
X193063100Y-129876023D01*
X193080018Y-129956844D01*
X193104029Y-130051296D01*
X193131676Y-130147583D01*
X193159503Y-130233906D01*
X193184054Y-130298468D01*
X193191506Y-130314271D01*
X193211081Y-130362132D01*
X193218167Y-130397099D01*
X193226684Y-130425035D01*
X193250055Y-130479987D01*
X193285013Y-130554786D01*
X193328293Y-130642262D01*
X193343100Y-130671244D01*
X193468185Y-130900411D01*
X193596474Y-131105330D01*
X193734539Y-131294441D01*
X193888953Y-131476185D01*
X194066289Y-131659001D01*
X194236358Y-131818290D01*
X194302838Y-131873228D01*
X194389010Y-131936775D01*
X194488931Y-132005318D01*
X194596662Y-132075242D01*
X194706260Y-132142933D01*
X194811784Y-132204779D01*
X194907294Y-132257165D01*
X194986847Y-132296478D01*
X195044503Y-132319104D01*
X195066407Y-132323167D01*
X195091662Y-132332176D01*
X195094633Y-132339407D01*
X195111219Y-132359641D01*
X195151290Y-132380727D01*
X195200323Y-132396305D01*
X195234272Y-132400547D01*
X195283058Y-132412712D01*
X195305905Y-132426797D01*
X195343076Y-132448298D01*
X195408119Y-132471548D01*
X195504608Y-132497649D01*
X195626621Y-132525646D01*
X195707649Y-132544131D01*
X195789098Y-132564103D01*
X195829744Y-132574807D01*
X195890876Y-132586536D01*
X195979815Y-132596748D01*
X196090627Y-132605354D01*
X196217377Y-132612267D01*
X196354133Y-132617397D01*
X196494960Y-132620655D01*
X196633924Y-132621954D01*
X196765093Y-132621203D01*
X196882531Y-132618315D01*
X196980306Y-132613200D01*
X197052484Y-132605770D01*
X197093131Y-132595936D01*
X197096842Y-132593757D01*
X197124581Y-132583499D01*
X197178943Y-132570255D01*
X197248304Y-132556848D01*
X197250155Y-132556530D01*
X197327900Y-132541133D01*
X197398714Y-132523508D01*
X197443605Y-132508824D01*
X197503943Y-132488324D01*
X197572699Y-132471073D01*
X197580467Y-132469559D01*
X197634358Y-132456798D01*
X197672034Y-132443045D01*
X197677193Y-132439841D01*
X197711266Y-132422982D01*
X197767129Y-132404292D01*
X197831527Y-132387148D01*
X197891205Y-132374929D01*
X197932909Y-132371012D01*
X197941485Y-132372483D01*
X197959290Y-132387726D01*
X197993383Y-132426089D01*
X198044885Y-132488988D01*
X198114916Y-132577840D01*
X198204596Y-132694062D01*
X198315046Y-132839070D01*
X198414943Y-132971225D01*
X198474703Y-133050478D01*
X198540685Y-133137974D01*
X198587960Y-133200657D01*
X198633480Y-133269070D01*
X198663263Y-133330179D01*
X198675081Y-133377197D01*
X198666710Y-133403340D01*
X198655465Y-133406488D01*
X198630067Y-133414126D01*
X198580228Y-133434217D01*
X198516414Y-133462524D01*
X198512085Y-133464523D01*
X198447191Y-133493271D01*
X198395027Y-133514028D01*
X198366355Y-133522530D01*
X198365648Y-133522558D01*
X198345505Y-133536287D01*
X198344595Y-133541903D01*
X198328315Y-133557376D01*
X198304054Y-133561248D01*
X198257573Y-133570746D01*
X198212165Y-133590526D01*
X198146631Y-133621358D01*
X198057027Y-133655020D01*
X197957240Y-133686853D01*
X197861159Y-133712202D01*
X197828607Y-133719146D01*
X197765983Y-133736298D01*
X197716988Y-133758432D01*
X197701153Y-133770873D01*
X197690292Y-133800749D01*
X197677774Y-133863377D01*
X197664231Y-133952883D01*
X197650295Y-134063397D01*
X197636599Y-134189047D01*
X197623775Y-134323961D01*
X197612456Y-134462268D01*
X197603275Y-134598096D01*
X197596863Y-134725574D01*
X197596081Y-134746340D01*
X197591653Y-134842914D01*
X197585233Y-134910340D01*
X197574942Y-134958160D01*
X197558898Y-134995916D01*
X197541272Y-135024382D01*
X197493999Y-135076887D01*
X197431449Y-135125950D01*
X197407468Y-135140242D01*
X197321082Y-135186229D01*
X196516128Y-135186229D01*
X196318311Y-135186174D01*
X196155277Y-135185887D01*
X196023115Y-135185182D01*
X195917919Y-135183877D01*
X195835779Y-135181786D01*
X195772787Y-135178725D01*
X195725036Y-135174510D01*
X195688616Y-135168956D01*
X195659619Y-135161879D01*
X195634137Y-135153095D01*
X195610862Y-135143528D01*
X195550875Y-135114563D01*
X195504259Y-135085908D01*
X195487398Y-135070984D01*
X195460376Y-135026384D01*
X195438388Y-134966369D01*
X195420679Y-134886418D01*
X195406496Y-134782015D01*
X195395084Y-134648642D01*
X195385690Y-134481779D01*
X195384430Y-134454091D01*
X195378347Y-134325837D01*
X195371825Y-134203670D01*
X195365343Y-134095490D01*
X195359376Y-134009194D01*
X195354403Y-133952682D01*
X195353880Y-133948148D01*
X195332655Y-133855493D01*
X195296070Y-133781391D01*
X195248704Y-133732642D01*
X195197615Y-133716008D01*
X195158165Y-133710186D01*
X195095972Y-133694781D01*
X195020579Y-133672888D01*
X194941529Y-133647600D01*
X194868367Y-133622009D01*
X194810637Y-133599211D01*
X194777882Y-133582297D01*
X194774342Y-133578815D01*
X194747705Y-133563223D01*
X194732044Y-133561248D01*
X194695878Y-133553338D01*
X194642648Y-133533491D01*
X194621952Y-133524220D01*
X194509992Y-133472513D01*
X194423799Y-133434838D01*
X194366426Y-133412484D01*
X194342851Y-133406488D01*
X194318902Y-133393504D01*
X194317609Y-133390994D01*
X194298329Y-133373750D01*
X194255476Y-133345698D01*
X194216835Y-133323287D01*
X194124466Y-133282379D01*
X194046807Y-133273163D01*
X193975969Y-133295924D01*
X193922813Y-133333944D01*
X193869301Y-133380038D01*
X193801927Y-133437985D01*
X193742007Y-133489459D01*
X193646099Y-133572419D01*
X193543334Y-133662353D01*
X193445715Y-133748699D01*
X193365247Y-133820895D01*
X193363255Y-133822702D01*
X193307640Y-133870495D01*
X193246458Y-133919395D01*
X193237512Y-133926175D01*
X193193912Y-133959765D01*
X193164873Y-133983791D01*
X193160132Y-133988429D01*
X193137045Y-133999561D01*
X193089756Y-134014515D01*
X193063190Y-134021508D01*
X192999809Y-134033916D01*
X192943423Y-134035294D01*
X192888721Y-134022833D01*
X192830394Y-133993723D01*
X192763130Y-133945158D01*
X192681620Y-133874329D01*
X192580553Y-133778428D01*
X192553297Y-133751858D01*
X192472031Y-133673023D01*
X192400113Y-133604488D01*
X192342125Y-133550517D01*
X192302644Y-133515375D01*
X192286383Y-133503311D01*
X192268698Y-133488474D01*
X192267038Y-133484507D01*
X192252148Y-133466007D01*
X192213814Y-133424127D01*
X192155884Y-133362911D01*
X192082209Y-133286399D01*
X191996638Y-133198633D01*
X191936560Y-133137565D01*
X191814932Y-133012521D01*
X191721651Y-132912532D01*
X191656868Y-132837771D01*
X191620737Y-132788411D01*
X191612531Y-132768099D01*
X191603272Y-132716982D01*
X191590979Y-132686598D01*
X191581576Y-132630611D01*
X191599202Y-132555382D01*
X191641054Y-132466308D01*
X191704331Y-132368783D01*
X191786230Y-132268204D01*
X191834999Y-132216736D01*
X191882950Y-132165713D01*
X191925969Y-132115353D01*
X191931724Y-132107998D01*
X191962308Y-132070405D01*
X192010129Y-132014216D01*
X192066517Y-131949567D01*
X192086484Y-131927029D01*
X192143778Y-131862018D01*
X192195525Y-131802197D01*
X192233074Y-131757603D01*
X192241244Y-131747471D01*
X192284482Y-131696217D01*
X192325617Y-131651597D01*
X192352867Y-131619837D01*
X192361750Y-131590294D01*
X192354836Y-131547094D01*
X192347145Y-131518573D01*
X192329616Y-131465089D01*
X192313171Y-131429428D01*
X192307520Y-131422739D01*
X192291735Y-131401378D01*
X192266034Y-131355262D01*
X192239807Y-131302331D01*
X192205835Y-131235088D01*
X192171994Y-131175796D01*
X192151533Y-131145349D01*
X192124694Y-131093233D01*
X192115502Y-131046156D01*
X192106244Y-130998557D01*
X192088508Y-130970696D01*
X192066413Y-130936987D01*
X192049851Y-130886014D01*
X192049306Y-130883218D01*
X192033359Y-130831973D01*
X192011441Y-130796901D01*
X192010274Y-130795882D01*
X191992062Y-130764605D01*
X191976028Y-130710224D01*
X191970280Y-130677868D01*
X191960222Y-130623116D01*
X191948995Y-130588461D01*
X191943130Y-130582116D01*
X191932539Y-130564728D01*
X191918462Y-130519251D01*
X191904633Y-130458774D01*
X191887249Y-130387078D01*
X191863888Y-130339844D01*
X191826499Y-130311073D01*
X191767032Y-130294768D01*
X191677434Y-130284930D01*
X191670566Y-130284387D01*
X191584914Y-130275743D01*
X191497528Y-130263903D01*
X191448099Y-130255382D01*
X191393602Y-130248396D01*
X191310408Y-130242380D01*
X191208505Y-130237858D01*
X191097884Y-130235355D01*
X191060641Y-130235059D01*
X190946833Y-130234211D01*
X190862993Y-130231921D01*
X190800399Y-130227002D01*
X190750332Y-130218268D01*
X190704068Y-130204532D01*
X190652887Y-130184608D01*
X190635050Y-130177154D01*
X190560319Y-130142832D01*
X190516215Y-130114393D01*
X190496141Y-130087168D01*
X190493564Y-130077011D01*
X190477309Y-130025353D01*
X190460419Y-129993153D01*
X190453696Y-129976081D01*
X190448105Y-129945085D01*
X190443540Y-129896963D01*
X190439895Y-129828514D01*
X190437063Y-129736535D01*
X190434938Y-129617824D01*
X190433416Y-129469181D01*
X190432389Y-129287403D01*
X190431889Y-129130881D01*
X190429876Y-128309077D01*
X190474765Y-128217539D01*
X190503057Y-128165816D01*
X190534621Y-128125168D01*
X190574596Y-128093832D01*
X190628119Y-128070046D01*
X190700329Y-128052047D01*
X190796363Y-128038074D01*
X190921360Y-128026365D01*
X191061199Y-128016415D01*
X191265516Y-128001725D01*
X191443629Y-127986343D01*
X191593323Y-127970553D01*
X191712380Y-127954637D01*
X191798586Y-127938876D01*
X191849723Y-127923555D01*
X191862929Y-127914264D01*
X191875310Y-127882724D01*
X191891122Y-127827563D01*
X191901548Y-127784385D01*
X191920079Y-127714269D01*
X191941332Y-127651706D01*
X191952519Y-127626351D01*
X191972671Y-127574921D01*
X191979967Y-127534309D01*
X191991308Y-127489612D01*
X192004268Y-127470471D01*
X192025873Y-127442757D01*
X192029795Y-127432748D01*
X192038862Y-127387759D01*
X192055468Y-127334925D01*
X192074654Y-127287399D01*
X192091462Y-127258330D01*
X192096902Y-127254774D01*
X192112913Y-127238775D01*
X192115984Y-127220920D01*
X192124499Y-127191663D01*
X192147459Y-127135592D01*
X192181551Y-127060269D01*
X192223461Y-126973254D01*
X192232054Y-126955985D01*
X192275319Y-126865713D01*
X192311212Y-126783634D01*
X192336365Y-126717985D01*
X192347409Y-126677003D01*
X192347642Y-126673255D01*
X192330159Y-126610636D01*
X192277982Y-126532426D01*
X192231572Y-126479754D01*
X192171763Y-126415433D01*
X192119253Y-126356868D01*
X192079804Y-126310683D01*
X192059176Y-126283500D01*
X192057467Y-126279625D01*
X192045065Y-126261426D01*
X192013644Y-126226282D01*
X191994243Y-126206238D01*
X191938749Y-126147059D01*
X191869062Y-126068245D01*
X191794574Y-125980834D01*
X191724672Y-125895866D01*
X191668748Y-125824378D01*
X191664008Y-125818021D01*
X191613676Y-125725774D01*
X191594877Y-125623175D01*
X191601253Y-125527365D01*
X191606682Y-125500338D01*
X191616535Y-125473645D01*
X191633954Y-125443556D01*
X191662080Y-125406342D01*
X191704055Y-125358272D01*
X191763019Y-125295617D01*
X191842114Y-125214646D01*
X191944482Y-125111630D01*
X191988572Y-125067495D01*
X192087736Y-124968804D01*
X192178592Y-124879334D01*
X192257395Y-124802697D01*
X192320400Y-124742505D01*
X192363862Y-124702370D01*
X192384036Y-124685904D01*
X192384394Y-124685758D01*
X192404544Y-124662957D01*
X192405677Y-124654969D01*
X192420100Y-124630526D01*
X192456820Y-124594814D01*
X192482600Y-124574365D01*
X192527149Y-124538975D01*
X192555145Y-124512067D01*
X192559980Y-124503996D01*
X192574977Y-124477846D01*
X192613644Y-124436000D01*
X192668129Y-124385198D01*
X192730579Y-124332180D01*
X192793144Y-124283685D01*
X192847971Y-124246453D01*
X192879162Y-124230026D01*
X192932942Y-124210015D01*
X192973185Y-124203885D01*
X193017702Y-124211354D01*
X193068663Y-124227029D01*
X193180735Y-124279949D01*
X193303880Y-124369100D01*
X193402968Y-124459356D01*
X193446383Y-124500077D01*
X193507538Y-124554975D01*
X193574515Y-124613383D01*
X193586745Y-124623852D01*
X193646731Y-124675083D01*
X193696866Y-124718005D01*
X193728682Y-124745365D01*
X193733550Y-124749595D01*
X193760310Y-124772346D01*
X193805024Y-124809747D01*
X193837423Y-124836648D01*
X193889912Y-124881217D01*
X193934097Y-124920649D01*
X193950753Y-124936639D01*
X194012529Y-124976876D01*
X194079564Y-124982158D01*
X194138996Y-124954647D01*
X194184322Y-124926461D01*
X194223065Y-124914055D01*
X194224348Y-124914028D01*
X194264693Y-124900085D01*
X194282143Y-124885010D01*
X194312397Y-124860565D01*
X194327760Y-124855993D01*
X194355660Y-124848131D01*
X194406150Y-124827732D01*
X194455970Y-124805005D01*
X194524659Y-124772720D01*
X194588461Y-124743628D01*
X194620681Y-124729529D01*
X194674840Y-124706335D01*
X194741746Y-124677248D01*
X194765768Y-124666705D01*
X194818273Y-124645805D01*
X194891440Y-124619536D01*
X194976313Y-124590776D01*
X195063937Y-124562399D01*
X195145357Y-124537281D01*
X195211617Y-124518298D01*
X195253762Y-124508326D01*
X195261555Y-124507497D01*
X195290661Y-124489164D01*
X195316224Y-124433232D01*
X195338279Y-124339516D01*
X195356857Y-124207830D01*
X195371993Y-124037988D01*
X195383718Y-123829804D01*
X195384506Y-123811574D01*
X195392911Y-123640626D01*
X195402891Y-123503558D01*
X195415671Y-123395559D01*
X195432475Y-123311820D01*
X195454529Y-123247531D01*
X195483055Y-123197883D01*
X195519280Y-123158066D01*
X195558766Y-123127154D01*
X195645966Y-123066579D01*
X196508196Y-123066579D01*
X196714321Y-123066671D01*
G37*
G36*
X196340125Y-126833257D02*
G01*
X196421219Y-126838024D01*
X196469474Y-126845480D01*
X196473901Y-126846943D01*
X196517680Y-126875835D01*
X196550315Y-126927531D01*
X196573704Y-127006861D01*
X196589749Y-127118652D01*
X196592507Y-127148376D01*
X196602036Y-127227073D01*
X196615192Y-127294750D01*
X196629421Y-127338807D01*
X196632059Y-127343504D01*
X196665874Y-127372362D01*
X196724916Y-127402177D01*
X196771189Y-127418932D01*
X196838688Y-127442209D01*
X196895612Y-127465856D01*
X196922205Y-127480126D01*
X196989774Y-127505090D01*
X197063193Y-127492379D01*
X197139516Y-127443388D01*
X197186031Y-127403718D01*
X197221787Y-127373879D01*
X197232078Y-127365649D01*
X197260255Y-127343287D01*
X197298696Y-127311924D01*
X197378006Y-127265882D01*
X197457519Y-127258519D01*
X197537318Y-127289839D01*
X197581975Y-127324109D01*
X197681105Y-127415779D01*
X197774176Y-127506249D01*
X197856426Y-127590514D01*
X197923095Y-127663569D01*
X197969420Y-127720409D01*
X197989202Y-127752136D01*
X198001754Y-127827352D01*
X197977509Y-127900706D01*
X197935738Y-127951194D01*
X197889515Y-128000038D01*
X197840615Y-128061773D01*
X197795799Y-128126492D01*
X197761829Y-128184288D01*
X197745466Y-128225253D01*
X197744900Y-128230825D01*
X197756663Y-128277313D01*
X197783590Y-128324028D01*
X197811256Y-128372011D01*
X197822280Y-128415541D01*
X197833640Y-128466132D01*
X197862308Y-128529261D01*
X197900167Y-128588304D01*
X197915463Y-128606410D01*
X197950668Y-128623247D01*
X198016754Y-128635936D01*
X198079895Y-128641618D01*
X198168454Y-128650336D01*
X198258689Y-128664945D01*
X198320414Y-128679433D01*
X198421975Y-128709251D01*
X198421360Y-129089514D01*
X198420206Y-129238235D01*
X198417179Y-129351021D01*
X198412118Y-129430591D01*
X198404864Y-129479662D01*
X198397179Y-129499031D01*
X198348782Y-129537796D01*
X198274894Y-129562582D01*
X198170929Y-129574586D01*
X198101560Y-129576175D01*
X197937724Y-129576175D01*
X197904183Y-129648719D01*
X197880307Y-129696473D01*
X197861677Y-129727071D01*
X197858136Y-129730935D01*
X197845840Y-129754084D01*
X197829802Y-129800752D01*
X197823756Y-129822007D01*
X197806277Y-129874598D01*
X197788496Y-129909497D01*
X197783064Y-129915038D01*
X197769977Y-129940703D01*
X197764255Y-129986737D01*
X197764245Y-129988761D01*
X197770211Y-130026344D01*
X197791099Y-130069211D01*
X197831399Y-130124687D01*
X197889437Y-130193114D01*
X197944710Y-130258289D01*
X197990204Y-130316340D01*
X198019534Y-130358897D01*
X198026517Y-130372830D01*
X198028727Y-130413692D01*
X198010434Y-130464520D01*
X197969434Y-130528536D01*
X197903523Y-130608961D01*
X197810496Y-130709016D01*
X197764330Y-130756136D01*
X197683428Y-130837222D01*
X197623906Y-130894618D01*
X197580201Y-130932400D01*
X197546749Y-130954642D01*
X197517986Y-130965422D01*
X197488349Y-130968814D01*
X197473731Y-130969016D01*
X197412317Y-130960466D01*
X197348412Y-130932166D01*
X197275097Y-130880143D01*
X197193567Y-130808079D01*
X197140328Y-130762496D01*
X197093944Y-130738207D01*
X197043766Y-130734139D01*
X196979149Y-130749216D01*
X196899498Y-130778405D01*
X196801934Y-130816299D01*
X196733812Y-130844774D01*
X196689372Y-130870461D01*
X196662851Y-130899994D01*
X196648488Y-130940003D01*
X196640523Y-130997120D01*
X196633195Y-131077979D01*
X196632449Y-131085821D01*
X196616709Y-131210908D01*
X196596810Y-131299949D01*
X196575867Y-131349747D01*
X196553894Y-131381774D01*
X196528768Y-131401511D01*
X196489953Y-131413345D01*
X196426908Y-131421660D01*
X196395815Y-131424678D01*
X196293361Y-131431313D01*
X196182933Y-131433520D01*
X196152628Y-131433025D01*
X196072234Y-131431711D01*
X195968965Y-131426296D01*
X195880828Y-131417688D01*
X195815523Y-131406299D01*
X195780752Y-131392539D01*
X195779912Y-131391756D01*
X195752966Y-131347167D01*
X195728268Y-131275282D01*
X195708604Y-131187489D01*
X195696756Y-131095178D01*
X195694558Y-131042544D01*
X195692452Y-130977722D01*
X195682737Y-130937583D01*
X195659810Y-130908173D01*
X195631458Y-130885420D01*
X195578075Y-130852083D01*
X195527592Y-130830359D01*
X195520224Y-130828497D01*
X195475278Y-130815061D01*
X195412398Y-130791489D01*
X195370896Y-130774075D01*
X195315375Y-130751948D01*
X195271283Y-130743789D01*
X195230240Y-130752515D01*
X195183870Y-130781042D01*
X195123795Y-130832287D01*
X195076016Y-130876723D01*
X195037858Y-130910967D01*
X195017275Y-130929438D01*
X194972204Y-130960532D01*
X194928025Y-130976626D01*
X194871962Y-130984338D01*
X194867628Y-130984705D01*
X194764909Y-130993223D01*
X194582658Y-130808344D01*
X194533531Y-130758508D01*
X194456023Y-130677927D01*
X194388149Y-130603663D01*
X194334731Y-130541287D01*
X194300591Y-130496371D01*
X194290613Y-130477813D01*
X194292439Y-130436688D01*
X194308372Y-130380442D01*
X194332528Y-130323857D01*
X194359021Y-130281714D01*
X194373515Y-130269544D01*
X194392639Y-130252179D01*
X194428116Y-130213153D01*
X194470757Y-130162728D01*
X194522877Y-130088145D01*
X194549685Y-130024565D01*
X194549944Y-129976924D01*
X194523956Y-129950726D01*
X194498384Y-129929078D01*
X194495086Y-129917480D01*
X194488216Y-129889572D01*
X194470018Y-129837153D01*
X194444351Y-129771296D01*
X194442935Y-129767835D01*
X194406967Y-129690569D01*
X194402228Y-129684387D01*
X194509678Y-129684387D01*
X194526228Y-129729500D01*
X194528517Y-129733449D01*
X194557218Y-129773783D01*
X194582111Y-129796000D01*
X194582658Y-129796222D01*
X194609850Y-129792643D01*
X194661223Y-129775375D01*
X194726336Y-129747998D01*
X194735403Y-129743819D01*
X194866088Y-129682951D01*
X194811092Y-129659453D01*
X194759885Y-129645796D01*
X194732446Y-129642303D01*
X194689927Y-129636891D01*
X194648731Y-129635083D01*
X194568319Y-129639314D01*
X194522838Y-129655037D01*
X194509678Y-129684387D01*
X194402228Y-129684387D01*
X194369022Y-129641065D01*
X194363683Y-129638059D01*
X194319364Y-129613110D01*
X194248253Y-129600491D01*
X194175745Y-129597367D01*
X194053452Y-129590336D01*
X193966552Y-129574313D01*
X193919424Y-129552228D01*
X193910386Y-129526469D01*
X193903161Y-129471198D01*
X193902350Y-129459394D01*
X194148481Y-129459394D01*
X194161476Y-129479053D01*
X194173521Y-129488697D01*
X194214945Y-129508737D01*
X194275155Y-129525636D01*
X194297907Y-129529737D01*
X194335884Y-129535557D01*
X194363683Y-129536399D01*
X194388013Y-129527722D01*
X194405175Y-129513566D01*
X194578792Y-129513566D01*
X194607164Y-129547195D01*
X194654903Y-129558480D01*
X194732446Y-129559039D01*
X194810990Y-129557190D01*
X194879858Y-129553460D01*
X194928373Y-129548375D01*
X194944679Y-129544188D01*
X194941984Y-129526893D01*
X194920092Y-129494910D01*
X194888666Y-129459317D01*
X194857372Y-129431192D01*
X194837566Y-129421415D01*
X194813654Y-129409469D01*
X194780657Y-129382725D01*
X194778451Y-129381412D01*
X194724958Y-129349572D01*
X194670560Y-129355083D01*
X194617498Y-129399255D01*
X194613893Y-129403721D01*
X194580494Y-129463701D01*
X194578792Y-129513566D01*
X194405175Y-129513566D01*
X194415584Y-129504980D01*
X194453106Y-129463632D01*
X194507288Y-129399134D01*
X194528792Y-129373399D01*
X194558372Y-129330726D01*
X194572184Y-129296345D01*
X194572318Y-129294029D01*
X194583306Y-129269358D01*
X194591663Y-129266655D01*
X194610446Y-129251934D01*
X194611008Y-129247310D01*
X194595625Y-129229536D01*
X194585638Y-129227965D01*
X194547731Y-129243749D01*
X194501338Y-129285322D01*
X194464276Y-129332857D01*
X194455572Y-129344020D01*
X194443847Y-129362790D01*
X194420269Y-129396757D01*
X194392838Y-129414302D01*
X194348581Y-129420822D01*
X194302153Y-129421711D01*
X194237066Y-129425243D01*
X194185312Y-129433987D01*
X194166073Y-129441424D01*
X194148481Y-129459394D01*
X193902350Y-129459394D01*
X193897963Y-129395557D01*
X193895005Y-129308690D01*
X193894502Y-129219740D01*
X193896667Y-129137852D01*
X193901714Y-129072170D01*
X193907436Y-129039351D01*
X193922150Y-129000051D01*
X193934664Y-128997426D01*
X193944404Y-129029495D01*
X193950796Y-129094277D01*
X193953267Y-129189791D01*
X193953278Y-129197644D01*
X193953875Y-129288528D01*
X193956545Y-129348025D01*
X193962608Y-129383432D01*
X193973381Y-129402045D01*
X193990185Y-129411161D01*
X193991981Y-129411747D01*
X194039947Y-129409169D01*
X194083870Y-129387181D01*
X194131504Y-129357496D01*
X194170909Y-129338118D01*
X194196926Y-129310998D01*
X194201694Y-129262916D01*
X194191235Y-129216386D01*
X194778849Y-129216386D01*
X194785801Y-129247025D01*
X194818497Y-129288284D01*
X194868196Y-129333244D01*
X194926158Y-129374985D01*
X194983640Y-129406588D01*
X195031902Y-129421133D01*
X195037858Y-129421415D01*
X195048839Y-129418424D01*
X195053958Y-129405190D01*
X195052779Y-129375325D01*
X195044870Y-129322439D01*
X195029795Y-129240143D01*
X195023175Y-129205453D01*
X195018425Y-129182806D01*
X195015958Y-129171043D01*
X195121292Y-129171043D01*
X195127410Y-129269062D01*
X195133866Y-129315018D01*
X195155258Y-129405688D01*
X195186326Y-129500685D01*
X195222509Y-129588540D01*
X195259242Y-129657784D01*
X195282595Y-129688791D01*
X195303955Y-129720636D01*
X195307429Y-129734408D01*
X195320613Y-129756012D01*
X195355104Y-129795602D01*
X195403314Y-129845440D01*
X195457649Y-129897787D01*
X195510522Y-129944904D01*
X195528078Y-129959370D01*
X195574617Y-129989041D01*
X195649153Y-130027726D01*
X195743277Y-130071343D01*
X195848578Y-130115811D01*
X195858761Y-130119893D01*
X195996760Y-130156228D01*
X196152628Y-130165073D01*
X196317889Y-130147274D01*
X196484069Y-130103676D01*
X196627283Y-130043147D01*
X196676472Y-130014016D01*
X196736882Y-129972534D01*
X196800481Y-129925013D01*
X196859235Y-129877766D01*
X196905111Y-129837105D01*
X196930076Y-129809341D01*
X196932410Y-129803395D01*
X196943674Y-129779634D01*
X196973056Y-129736027D01*
X197009790Y-129687652D01*
X197050213Y-129632093D01*
X197078215Y-129584453D01*
X197087170Y-129558172D01*
X197099258Y-129517044D01*
X197108608Y-129504440D01*
X197120020Y-129477660D01*
X197134290Y-129422932D01*
X197149445Y-129350694D01*
X197163513Y-129271385D01*
X197174521Y-129195442D01*
X197180496Y-129133305D01*
X197180963Y-129121568D01*
X197177819Y-129083644D01*
X197168714Y-129021299D01*
X197155614Y-128947980D01*
X197155513Y-128947462D01*
X197137370Y-128865036D01*
X197116357Y-128785233D01*
X197099313Y-128731927D01*
X197064393Y-128658406D01*
X197012533Y-128572886D01*
X196951899Y-128486880D01*
X196890653Y-128411897D01*
X196836959Y-128359449D01*
X196832962Y-128356367D01*
X196782649Y-128316685D01*
X196740338Y-128280187D01*
X196735102Y-128275223D01*
X196701014Y-128249166D01*
X196680244Y-128241370D01*
X196650293Y-128231573D01*
X196616133Y-128212484D01*
X196488945Y-128150808D01*
X196332277Y-128112731D01*
X196147554Y-128098575D01*
X196112999Y-128098575D01*
X196026489Y-128101070D01*
X195954864Y-128106146D01*
X195906613Y-128113012D01*
X195890531Y-128119290D01*
X195865847Y-128134928D01*
X195817108Y-128153775D01*
X195786585Y-128162997D01*
X195772301Y-128167903D01*
X195728099Y-128183086D01*
X195684336Y-128205284D01*
X195672983Y-128214763D01*
X195645072Y-128237734D01*
X195633099Y-128241370D01*
X195604978Y-128253340D01*
X195557226Y-128284690D01*
X195498661Y-128328573D01*
X195438101Y-128378146D01*
X195384363Y-128426563D01*
X195382585Y-128428397D01*
X195353417Y-128458480D01*
X195308931Y-128517962D01*
X195265053Y-128590202D01*
X195249534Y-128620553D01*
X195219664Y-128679857D01*
X195192429Y-128727523D01*
X195180801Y-128744340D01*
X195159453Y-128790017D01*
X195142058Y-128864889D01*
X195129386Y-128959593D01*
X195122208Y-129064766D01*
X195121292Y-129171043D01*
X195015958Y-129171043D01*
X195003941Y-129113749D01*
X194987936Y-129058632D01*
X194974096Y-129038237D01*
X194961353Y-129050699D01*
X194951819Y-129080707D01*
X194920818Y-129125689D01*
X194865186Y-129156923D01*
X194815333Y-129182482D01*
X194782985Y-129209419D01*
X194778849Y-129216386D01*
X194191235Y-129216386D01*
X194188234Y-129203036D01*
X194159571Y-129140525D01*
X194118727Y-129084550D01*
X194075251Y-129048063D01*
X194052338Y-129018590D01*
X194050003Y-129006037D01*
X194033435Y-128983020D01*
X193992693Y-128960797D01*
X193984006Y-128957700D01*
X193930598Y-128932008D01*
X193903473Y-128892940D01*
X193895300Y-128829192D01*
X193895243Y-128820891D01*
X193900269Y-128798391D01*
X194039893Y-128798391D01*
X194040196Y-128822177D01*
X194042051Y-128828649D01*
X194067894Y-128878053D01*
X194122932Y-128952762D01*
X194207128Y-129052728D01*
X194248698Y-129099483D01*
X194301034Y-129149237D01*
X194352548Y-129174715D01*
X194401331Y-129183756D01*
X194464276Y-129185776D01*
X194501951Y-129172532D01*
X194512576Y-129162314D01*
X194549179Y-129136423D01*
X194572049Y-129131240D01*
X194602693Y-129119245D01*
X194643932Y-129090494D01*
X194682657Y-129055841D01*
X194705762Y-129026141D01*
X194707733Y-129018889D01*
X194694868Y-129001087D01*
X194661445Y-128965311D01*
X194623271Y-128927609D01*
X194563641Y-128876744D01*
X194510290Y-128849112D01*
X194448381Y-128836488D01*
X194385437Y-128823286D01*
X194334057Y-128802136D01*
X194321177Y-128793014D01*
X194291280Y-128772627D01*
X194253052Y-128763386D01*
X194196704Y-128764445D01*
X194112446Y-128774962D01*
X194112235Y-128774993D01*
X194061052Y-128784844D01*
X194039893Y-128798391D01*
X193900269Y-128798391D01*
X193909560Y-128756803D01*
X193953594Y-128713840D01*
X193971470Y-128708411D01*
X194554786Y-128708411D01*
X194577742Y-128755218D01*
X194625639Y-128809542D01*
X194685478Y-128866707D01*
X194740407Y-128893951D01*
X194778451Y-128895725D01*
X194813808Y-128886622D01*
X194835565Y-128862485D01*
X194852370Y-128812603D01*
X194855461Y-128800370D01*
X194873341Y-128737628D01*
X194892276Y-128685282D01*
X194898579Y-128671826D01*
X194912697Y-128630680D01*
X194916296Y-128613761D01*
X195003005Y-128613761D01*
X195003110Y-128677353D01*
X195018425Y-128705464D01*
X195048032Y-128697780D01*
X195091013Y-128653988D01*
X195097292Y-128645944D01*
X195134767Y-128598676D01*
X195166860Y-128560889D01*
X195170305Y-128557146D01*
X195210338Y-128508271D01*
X195250822Y-128449162D01*
X195284604Y-128391485D01*
X195304532Y-128346907D01*
X195307077Y-128334041D01*
X195293945Y-128299754D01*
X195261217Y-128258396D01*
X195254427Y-128251825D01*
X195196719Y-128211222D01*
X195146874Y-128205900D01*
X195121157Y-128217485D01*
X195103774Y-128243953D01*
X195081656Y-128298549D01*
X195057725Y-128371475D01*
X195034903Y-128452933D01*
X195016111Y-128533124D01*
X195004270Y-128602252D01*
X195003005Y-128613761D01*
X194916296Y-128613761D01*
X194926066Y-128567833D01*
X194932449Y-128523972D01*
X194943391Y-128458241D01*
X194957863Y-128405437D01*
X194967546Y-128385025D01*
X194984851Y-128346976D01*
X194993423Y-128300765D01*
X194992206Y-128260828D01*
X194980144Y-128241601D01*
X194978054Y-128241370D01*
X194964348Y-128243609D01*
X194946765Y-128252917D01*
X194920841Y-128273179D01*
X194882108Y-128308281D01*
X194826102Y-128362108D01*
X194748357Y-128438546D01*
X194725853Y-128460800D01*
X194642304Y-128545315D01*
X194607581Y-128585634D01*
X194586393Y-128610236D01*
X194557445Y-128662343D01*
X194554786Y-128708411D01*
X193971470Y-128708411D01*
X194028963Y-128690950D01*
X194102181Y-128686305D01*
X194177200Y-128683407D01*
X194230585Y-128671547D01*
X194279161Y-128645971D01*
X194302581Y-128629702D01*
X194384055Y-128561822D01*
X194438608Y-128491927D01*
X194467792Y-128426307D01*
X194586644Y-128426307D01*
X194607581Y-128427980D01*
X194650491Y-128397968D01*
X194674343Y-128376155D01*
X194720261Y-128334434D01*
X194755726Y-128306559D01*
X194769665Y-128299405D01*
X194783386Y-128283681D01*
X194785113Y-128270387D01*
X194795703Y-128244646D01*
X194804731Y-128241370D01*
X194834506Y-128226183D01*
X194872332Y-128188700D01*
X194908577Y-128141038D01*
X194933608Y-128095313D01*
X194935217Y-128088759D01*
X195230049Y-128088759D01*
X195245105Y-128122849D01*
X195282641Y-128164855D01*
X195331206Y-128204100D01*
X195379349Y-128229907D01*
X195382585Y-128230991D01*
X195416328Y-128228286D01*
X195460092Y-128199717D01*
X195516632Y-128142835D01*
X195588699Y-128055191D01*
X195607266Y-128031071D01*
X195608480Y-128029565D01*
X195754101Y-128029565D01*
X195772301Y-128045038D01*
X195822182Y-128043769D01*
X195906175Y-128027797D01*
X195907124Y-128027586D01*
X195979939Y-128010764D01*
X196020544Y-127997820D01*
X196034527Y-127984373D01*
X196031439Y-127976345D01*
X196027477Y-127966045D01*
X196011318Y-127945955D01*
X195978152Y-127909571D01*
X195955486Y-127888619D01*
X195905724Y-127873501D01*
X195851382Y-127893267D01*
X195803022Y-127940231D01*
X195769981Y-127988286D01*
X195765152Y-127995309D01*
X195754101Y-128029565D01*
X195608480Y-128029565D01*
X195648427Y-127979993D01*
X195681506Y-127944176D01*
X195698304Y-127931849D01*
X195713249Y-127917017D01*
X195713674Y-127912504D01*
X195696668Y-127899718D01*
X195654852Y-127893326D01*
X195645966Y-127893159D01*
X195601206Y-127897479D01*
X195578841Y-127908101D01*
X195578259Y-127910351D01*
X195561368Y-127924910D01*
X195519866Y-127938359D01*
X195511368Y-127940092D01*
X195447039Y-127957644D01*
X195414168Y-127971107D01*
X195390462Y-127980816D01*
X195348944Y-127998370D01*
X195342591Y-128001056D01*
X195306461Y-128009110D01*
X195261427Y-128026153D01*
X195233385Y-128067130D01*
X195230049Y-128088759D01*
X194935217Y-128088759D01*
X194939306Y-128072101D01*
X194957841Y-128016533D01*
X195005761Y-127969874D01*
X195067652Y-127942901D01*
X195115512Y-127920218D01*
X195168862Y-127879851D01*
X195186480Y-127862721D01*
X195213542Y-127836608D01*
X195366035Y-127836608D01*
X195381864Y-127862278D01*
X195383570Y-127863376D01*
X195414168Y-127866949D01*
X195463643Y-127860147D01*
X195516956Y-127846634D01*
X195559070Y-127830071D01*
X195574685Y-127816828D01*
X195596839Y-127801593D01*
X195633070Y-127796138D01*
X195694698Y-127786332D01*
X195732731Y-127752667D01*
X195748513Y-127719230D01*
X195758231Y-127649849D01*
X195737067Y-127590292D01*
X195717179Y-127569130D01*
X195681650Y-127549638D01*
X195643493Y-127550869D01*
X195596622Y-127575460D01*
X195534952Y-127626045D01*
X195491586Y-127666803D01*
X195419473Y-127741460D01*
X195378096Y-127797198D01*
X195366035Y-127836608D01*
X195213542Y-127836608D01*
X195227156Y-127823472D01*
X195258497Y-127799696D01*
X195267084Y-127796434D01*
X195288628Y-127780915D01*
X195297789Y-127749475D01*
X195294004Y-127733563D01*
X195270564Y-127722470D01*
X195237751Y-127719054D01*
X195203474Y-127731161D01*
X195153947Y-127762177D01*
X195098900Y-127804145D01*
X195048066Y-127849109D01*
X195011176Y-127889112D01*
X194997908Y-127915152D01*
X194985120Y-127939904D01*
X194956063Y-127973410D01*
X194924706Y-128001080D01*
X194907857Y-128009229D01*
X194884937Y-128023127D01*
X194844603Y-128059904D01*
X194793557Y-128112186D01*
X194738504Y-128172599D01*
X194686147Y-128233771D01*
X194643188Y-128288326D01*
X194616332Y-128328892D01*
X194615108Y-128331256D01*
X194608712Y-128346450D01*
X194588786Y-128393787D01*
X194586644Y-128426307D01*
X194467792Y-128426307D01*
X194476398Y-128406957D01*
X194476788Y-128405802D01*
X194496616Y-128353027D01*
X194514263Y-128315891D01*
X194518232Y-128310044D01*
X194533602Y-128263857D01*
X194520357Y-128205090D01*
X194480894Y-128144294D01*
X194480429Y-128143772D01*
X194437331Y-128095746D01*
X194382614Y-128035087D01*
X194345014Y-127993556D01*
X194287218Y-127917162D01*
X194286484Y-127915055D01*
X194408935Y-127915055D01*
X194427528Y-127951056D01*
X194471257Y-128004401D01*
X194502927Y-128039055D01*
X194608712Y-128152719D01*
X194652846Y-128114828D01*
X194710984Y-128062678D01*
X194776147Y-128000704D01*
X194842294Y-127935116D01*
X194903385Y-127872121D01*
X194953379Y-127817928D01*
X194986235Y-127778746D01*
X194996171Y-127761973D01*
X194982491Y-127733672D01*
X194971475Y-127727042D01*
X194940224Y-127727740D01*
X194885806Y-127739822D01*
X194831894Y-127756666D01*
X194760258Y-127778371D01*
X194693649Y-127792815D01*
X194658177Y-127796434D01*
X194585273Y-127808280D01*
X194517549Y-127834729D01*
X194491579Y-127844871D01*
X194438054Y-127871587D01*
X194413202Y-127890523D01*
X194408935Y-127915055D01*
X194286484Y-127915055D01*
X194263984Y-127850447D01*
X194274355Y-127787745D01*
X194302444Y-127741451D01*
X194330270Y-127709090D01*
X194346323Y-127691627D01*
X194485517Y-127691627D01*
X194492903Y-127715762D01*
X194517549Y-127723340D01*
X194568170Y-127721499D01*
X194633739Y-127712119D01*
X194703229Y-127697082D01*
X194751739Y-127682452D01*
X195318850Y-127682452D01*
X195320872Y-127687359D01*
X195348944Y-127699105D01*
X195364906Y-127678377D01*
X195365464Y-127670692D01*
X195381591Y-127647060D01*
X195404154Y-127641674D01*
X195435663Y-127629578D01*
X195442844Y-127612657D01*
X195429885Y-127587154D01*
X195418662Y-127583973D01*
X195390547Y-127596153D01*
X195357228Y-127624356D01*
X195329673Y-127656988D01*
X195318850Y-127682452D01*
X194751739Y-127682452D01*
X194765612Y-127678268D01*
X194800064Y-127663371D01*
X194849978Y-127647149D01*
X194898652Y-127641674D01*
X194973512Y-127632680D01*
X195030446Y-127608555D01*
X195059737Y-127573585D01*
X195060645Y-127570229D01*
X195064467Y-127549191D01*
X195060743Y-127531638D01*
X195043870Y-127510501D01*
X195008245Y-127478712D01*
X194949901Y-127430546D01*
X194896822Y-127389592D01*
X194853778Y-127361025D01*
X194831902Y-127351499D01*
X194809944Y-127364482D01*
X194769438Y-127398459D01*
X194717965Y-127445978D01*
X194663101Y-127499582D01*
X194612426Y-127551818D01*
X194573518Y-127595231D01*
X194553956Y-127622365D01*
X194552973Y-127625871D01*
X194537402Y-127640188D01*
X194526025Y-127641674D01*
X194496108Y-127657173D01*
X194485517Y-127691627D01*
X194346323Y-127691627D01*
X194379149Y-127655919D01*
X194442861Y-127588570D01*
X194515186Y-127513674D01*
X194537363Y-127490999D01*
X194616761Y-127411124D01*
X194675785Y-127355134D01*
X194720344Y-127318524D01*
X194756348Y-127296787D01*
X194789707Y-127285418D01*
X194812074Y-127281544D01*
X194851299Y-127277482D01*
X194882678Y-127280111D01*
X194914871Y-127293542D01*
X194956541Y-127321885D01*
X195016350Y-127369251D01*
X195043533Y-127391379D01*
X195104035Y-127430084D01*
X195173573Y-127460684D01*
X195183930Y-127463922D01*
X195247835Y-127478019D01*
X195312231Y-127485387D01*
X195366264Y-127485656D01*
X195399077Y-127478453D01*
X195404154Y-127471455D01*
X195420342Y-127455025D01*
X195424448Y-127452956D01*
X195814149Y-127452956D01*
X195823198Y-127515295D01*
X195842578Y-127562250D01*
X195871603Y-127583343D01*
X195875918Y-127583639D01*
X195904678Y-127596134D01*
X195946455Y-127627488D01*
X195962604Y-127642143D01*
X196001883Y-127675699D01*
X196031439Y-127689042D01*
X196052620Y-127679015D01*
X196066773Y-127642465D01*
X196075244Y-127576235D01*
X196079381Y-127477170D01*
X196080493Y-127366008D01*
X196081229Y-127080669D01*
X196032867Y-127080669D01*
X195996523Y-127087985D01*
X195984504Y-127102058D01*
X195972304Y-127130868D01*
X195940356Y-127178084D01*
X195895642Y-127234139D01*
X195855875Y-127278386D01*
X195829800Y-127324025D01*
X195816120Y-127385707D01*
X195814149Y-127452956D01*
X195424448Y-127452956D01*
X195460015Y-127435032D01*
X195467025Y-127432293D01*
X195516275Y-127401816D01*
X195569825Y-127350873D01*
X195594357Y-127320714D01*
X195629933Y-127266868D01*
X195651382Y-127215952D01*
X195663634Y-127152802D01*
X195668472Y-127101870D01*
X195752364Y-127101870D01*
X195755182Y-127164154D01*
X195762472Y-127209304D01*
X195769981Y-127224689D01*
X195790047Y-127216574D01*
X195822625Y-127184039D01*
X195846655Y-127153287D01*
X195883904Y-127102103D01*
X195913693Y-127062432D01*
X195923778Y-127049756D01*
X195943819Y-127011619D01*
X195953857Y-126966573D01*
X195950941Y-126940418D01*
X195928440Y-126930261D01*
X195884456Y-126925911D01*
X195883324Y-126925909D01*
X195818690Y-126936568D01*
X195777503Y-126971368D01*
X195756612Y-127034547D01*
X195752364Y-127101870D01*
X195668472Y-127101870D01*
X195669709Y-127088841D01*
X195678165Y-127007475D01*
X195691006Y-126952929D01*
X195711844Y-126913343D01*
X195729676Y-126891850D01*
X195778752Y-126838856D01*
X196099259Y-126832557D01*
X196231152Y-126831371D01*
X196340125Y-126833257D01*
G37*
D13*
%TO.C,U3*%
X82475000Y-108260000D02*
X82475000Y-97191000D01*
X82475000Y-108260000D02*
X82475000Y-79750000D01*
X133425000Y-108260000D02*
X82475000Y-108260000D01*
X133425000Y-108260000D02*
X82475000Y-108260000D01*
X133425000Y-108260000D02*
X133425000Y-102890000D01*
X133425000Y-102890000D02*
X133425000Y-85200000D01*
X82475000Y-97191000D02*
X82475000Y-90480000D01*
X82475000Y-90480000D02*
X82475000Y-79750000D01*
X133425000Y-85200000D02*
X133425000Y-79750000D01*
X82475000Y-79750000D02*
X133425000Y-79750000D01*
X82475000Y-79750000D02*
X133425000Y-79750000D01*
X133425000Y-79750000D02*
X133425000Y-108260000D01*
D12*
X92535000Y-108830000D02*
G75*
G03*
X92535000Y-108830000I-100000J0D01*
G01*
%TO.C,SW1*%
X116256000Y-43942000D02*
X115256000Y-43942000D01*
X115756000Y-44442000D02*
X116256000Y-43942000D01*
X115256000Y-43942000D02*
X115756000Y-44442000D01*
D14*
%TO.C,BT1*%
X187960000Y-96520000D02*
X195580000Y-96520000D01*
X195580000Y-96520000D02*
X195580000Y-86360000D01*
X187960000Y-86360000D02*
X187960000Y-96520000D01*
X194310000Y-86360000D02*
X194310000Y-96520000D01*
X195580000Y-86360000D02*
X187960000Y-86360000D01*
D13*
%TO.C,U1*%
X101600000Y-132080000D02*
X121920000Y-132080000D01*
X101600000Y-130810000D02*
X101600000Y-132080000D01*
X121920000Y-130810000D02*
X121920000Y-132080000D01*
X101600000Y-128420000D02*
X101600000Y-115420000D01*
X121920000Y-128420000D02*
X121920000Y-115420000D01*
X101600000Y-113030000D02*
X101600000Y-111760000D01*
X121920000Y-113030000D02*
X121920000Y-111760000D01*
X121920000Y-111760000D02*
X101600000Y-111760000D01*
D12*
X101131800Y-129540000D02*
G75*
G03*
X101131800Y-129540000I-100000J0D01*
G01*
D14*
%TO.C,M2*%
X95250000Y-124460000D02*
X95250000Y-116840000D01*
X95250000Y-116840000D02*
X85090000Y-116840000D01*
X85090000Y-124460000D02*
X95250000Y-124460000D01*
X85090000Y-118110000D02*
X95250000Y-118110000D01*
X85090000Y-116840000D02*
X85090000Y-124460000D01*
%TO.C,LED1*%
X130520000Y-63534000D02*
X130520000Y-63690000D01*
X130520000Y-65850000D02*
X130520000Y-66006000D01*
X133752334Y-63691392D02*
G75*
G03*
X130520001Y-63534485I-1672334J-1078608D01*
G01*
X133121129Y-63690164D02*
G75*
G03*
X131039040Y-63690001I-1041129J-1079836D01*
G01*
X131039040Y-65849999D02*
G75*
G03*
X133121129Y-65849836I1040960J1079999D01*
G01*
X130520001Y-66005515D02*
G75*
G03*
X133752334Y-65848608I1559999J1235515D01*
G01*
%TO.C,LED2*%
X130520000Y-118144000D02*
X130520000Y-118300000D01*
X130520000Y-120460000D02*
X130520000Y-120616000D01*
X133752334Y-118301392D02*
G75*
G03*
X130520001Y-118144485I-1672334J-1078608D01*
G01*
X133121129Y-118300164D02*
G75*
G03*
X131039040Y-118300001I-1041129J-1079836D01*
G01*
X131039040Y-120459999D02*
G75*
G03*
X133121129Y-120459836I1040960J1079999D01*
G01*
X130520001Y-120615515D02*
G75*
G03*
X133752334Y-120458608I1559999J1235515D01*
G01*
%TO.C,VR1*%
X111820000Y-62170000D02*
X111820000Y-63500000D01*
X110490000Y-62170000D02*
X111820000Y-62170000D01*
%TO.C,R1*%
X123090000Y-74390000D02*
X123090000Y-67850000D01*
X123420000Y-74390000D02*
X123090000Y-74390000D01*
X125500000Y-74390000D02*
X125830000Y-74390000D01*
X125830000Y-74390000D02*
X125830000Y-67850000D01*
X123090000Y-67850000D02*
X123420000Y-67850000D01*
X125830000Y-67850000D02*
X125500000Y-67850000D01*
D12*
%TO.C,SW2*%
X117522000Y-140204000D02*
X117022000Y-139704000D01*
X117022000Y-139704000D02*
X116522000Y-140204000D01*
X116522000Y-140204000D02*
X117522000Y-140204000D01*
D14*
%TO.C,M1*%
X85090000Y-63500000D02*
X85090000Y-71120000D01*
X85090000Y-71120000D02*
X95250000Y-71120000D01*
X95250000Y-63500000D02*
X85090000Y-63500000D01*
X95250000Y-69850000D02*
X85090000Y-69850000D01*
X95250000Y-71120000D02*
X95250000Y-63500000D01*
%TD*%
M02*
