M48
; DRILL file {KiCad 7.0.9} date Tue Feb 13 13:29:03 2024
; FORMAT={-:-/ absolute / inch / decimal}
; #@! TF.CreationDate,2024-02-13T13:29:03+05:30
; #@! TF.GenerationSoftware,Kicad,Pcbnew,7.0.9
; #@! TF.FileFunction,MixedPlating,1,2
FMAT,2
INCH
; #@! TA.AperFunction,Plated,PTH,ViaDrill
T1C0.0157
; #@! TA.AperFunction,Plated,PTH,ComponentDrill
T2C0.0236
; #@! TA.AperFunction,Plated,PTH,ComponentDrill
T3C0.0315
; #@! TA.AperFunction,Plated,PTH,ComponentDrill
T4C0.0354
; #@! TA.AperFunction,Plated,PTH,ComponentDrill
T5C0.0394
; #@! TA.AperFunction,Plated,PTH,ComponentDrill
T6C0.0402
; #@! TA.AperFunction,Plated,PTH,ComponentDrill
T7C0.0520
; #@! TA.AperFunction,Plated,PTH,ComponentDrill
T8C0.0598
; #@! TA.AperFunction,NonPlated,NPTH,ComponentDrill
T9C0.1181
%
G90
G05
T1
X3.98Y-5.24
X4.81Y-4.96
X6.95Y-3.7
X7.04Y-3.43
X7.29Y-3.28
X7.32Y-3.8
X7.41Y-3.25
X7.41Y-4.01
X7.47Y-3.97
X7.55Y-3.86
X7.58Y-3.36
X7.7Y-4.21
X7.8Y-4.13
X7.86Y-3.8
T3
X4.5598Y-1.85
X4.6098Y-5.4
X4.6386Y-1.85
X4.6886Y-5.4
X4.7173Y-1.85
X4.7673Y-5.4
X4.9Y-2.65
X4.9Y-2.95
T4
X5.15Y-2.55
X5.15Y-4.7
X5.25Y-2.55
X5.25Y-4.7
T5
X4.15Y-2.5
X4.25Y-2.5
X4.35Y-2.5
X8.0Y-3.15
X8.0Y-3.25
X8.0Y-3.35
X8.0Y-3.45
X8.0Y-3.55
X8.0Y-3.65
X8.0Y-3.75
X8.0Y-3.85
X8.0Y-3.95
X8.0Y-4.05
X8.0Y-4.15
T6
X3.6392Y-3.2
X3.6392Y-4.2
X3.7392Y-3.2
X3.7392Y-4.2
X3.8392Y-3.2
X3.8392Y-4.2
X3.9392Y-3.2
X3.9392Y-4.2
X4.0392Y-3.2
X4.0392Y-4.2
X4.1392Y-3.2
X4.1392Y-4.2
X4.2392Y-3.2
X4.2392Y-4.2
X4.3392Y-3.2
X4.3392Y-4.2
X4.4392Y-3.2
X4.4392Y-4.2
X4.5392Y-3.2
X4.5392Y-4.2
X4.6392Y-3.2
X4.6392Y-4.2
X4.7392Y-3.2
X4.7392Y-4.2
X4.8392Y-3.2
X4.8392Y-4.2
X4.9392Y-3.2
X4.9392Y-4.2
X5.0392Y-3.2
X5.0392Y-4.2
T7
X4.05Y-4.5
X4.05Y-5.1
X4.15Y-4.5
X4.15Y-5.1
X4.25Y-4.5
X4.25Y-5.1
X4.35Y-4.5
X4.35Y-5.1
X4.45Y-4.5
X4.45Y-5.1
X4.55Y-4.5
X4.55Y-5.1
X4.65Y-4.5
X4.65Y-5.1
X4.75Y-4.5
X4.75Y-5.1
T8
X3.45Y-2.65
X3.45Y-4.75
X3.65Y-2.65
X3.65Y-4.75
X7.55Y-3.5
X7.55Y-3.7
T9
X3.3258Y-3.2185
X3.3258Y-4.1835
X5.1742Y-3.2185
X5.1742Y-4.1835
T2
X4.4772Y-1.8677G85X4.4772Y-1.8323
G05
X4.5272Y-5.4177G85X4.5272Y-5.3823
G05
X4.8Y-1.8677G85X4.8Y-1.8323
G05
X4.85Y-5.4177G85X4.85Y-5.3823
G05
T0
M30
